<?xml version="1.0" encoding="utf-8"?>
<!-- Generator: Adobe Illustrator 27.0.0, SVG Export Plug-In . SVG Version: 6.00 Build 0)  -->
<svg version="1.1" id="Capa_1" xmlns="http://www.w3.org/2000/svg" xmlns:xlink="http://www.w3.org/1999/xlink" x="0px" y="0px"
	 viewBox="0 0 2955.9 1393" style="enable-background:new 0 0 2955.9 1393;" xml:space="preserve">
<style type="text/css">
	.st0{fill:#FCC433;}
	.st1{fill:url(#SVGID_1_);}
	.st2{fill:#28337E;}
	.st3{fill:#C7CCD5;}
	.st4{fill:#F29232;}
	.st5{fill:url(#SVGID_00000121984161968932744550000010408541290562447250_);}
	.st6{fill:url(#SVGID_00000147198464366542826000000013538385997966829205_);}
	.st7{fill:url(#SVGID_00000007409281208299766370000015009657283263838623_);}
	.st8{fill:#3A3938;}
	.st9{fill:url(#SVGID_00000119828295106711865340000012730903971005897113_);}
	.st10{fill:url(#SVGID_00000000192043626725790980000012766009315167395518_);}
	.st11{fill:url(#SVGID_00000042696103903577057220000002244475951371402121_);}
	.st12{fill:url(#SVGID_00000010279482983574361990000017182994243249538450_);}
	.st13{fill:url(#SVGID_00000061465448822573622840000006085384109921040056_);}
	.st14{fill:url(#SVGID_00000124859788645862151300000005959289308106072236_);}
	.st15{fill:url(#SVGID_00000032614382576676764390000002779314126724657563_);}
	.st16{fill:url(#SVGID_00000120560417871203577350000001377664256570586808_);}
	.st17{fill:url(#SVGID_00000037690022717805249640000009900277197544062370_);}
	.st18{fill:url(#SVGID_00000154397548385256715320000009444246572707609258_);}
	.st19{fill:url(#SVGID_00000133528184794506097710000014489406620852146051_);}
	.st20{fill:url(#SVGID_00000033330336692074737130000006128544229317352878_);}
	.st21{fill:url(#SVGID_00000118367404059505437260000016085258750869666436_);}
	.st22{fill:url(#SVGID_00000085972428507771146330000015633066114227521434_);}
	.st23{fill:url(#SVGID_00000057143695152949039270000001355381772189992884_);}
	.st24{fill:url(#SVGID_00000171684684975336437670000017678803878746746529_);}
	.st25{fill:url(#SVGID_00000036950212823303573180000014541737460794278531_);}
	.st26{fill:url(#SVGID_00000116232560152396874880000003022329250575240883_);}
	.st27{fill:url(#SVGID_00000016767266972161147640000000632984192863016586_);}
	.st28{fill:url(#SVGID_00000150780556734285604590000010940824504124753048_);}
	.st29{fill:url(#SVGID_00000142867757839690817820000008174402916561241731_);}
	.st30{fill:url(#SVGID_00000012445394225681610450000002716306535525530042_);}
	.st31{fill:url(#SVGID_00000101077449696371021120000003102918828191760284_);}
	.st32{fill:url(#SVGID_00000163777748838275107970000011107772535632884352_);}
	.st33{fill:url(#SVGID_00000085225376873797989830000013292500959801514683_);}
	.st34{fill:url(#SVGID_00000096774200589556728330000009705332038091550602_);}
	.st35{fill:url(#SVGID_00000130640309702823554630000001852536608799595422_);}
	.st36{fill:url(#SVGID_00000109031998158355943620000011707530151691335808_);}
	.st37{fill:url(#SVGID_00000018944806192187545270000003503263167538880657_);}
	.st38{fill:url(#SVGID_00000049190133042808271100000003114550564390111409_);}
	.st39{fill:url(#SVGID_00000134930176664440210010000014624540261446337167_);}
	.st40{fill:url(#SVGID_00000181801359569726132580000011081910264153863045_);}
	.st41{fill:url(#SVGID_00000126298726576598888390000014437463386968303003_);}
	.st42{fill:url(#SVGID_00000067949647400402129140000000294364642819197847_);}
	.st43{fill:url(#SVGID_00000069386618467307228180000018384711955517025418_);}
	.st44{fill:url(#SVGID_00000095318732192664103730000011602171086978254508_);}
	.st45{fill:url(#SVGID_00000142156903837621577740000016775222813945031838_);}
	.st46{fill:url(#SVGID_00000016056568628690454450000013580743348474293408_);}
	.st47{fill:url(#SVGID_00000170278737587982249150000018172446813348737207_);}
	.st48{fill:url(#SVGID_00000127003280719498594640000002780988841582467498_);}
	.st49{fill:url(#SVGID_00000064354096109117134490000004890335379611682460_);}
	.st50{fill:url(#SVGID_00000093863003362147038770000004227912249001579930_);}
	.st51{fill:url(#SVGID_00000113351028337880958730000008337999621748092838_);}
	.st52{fill:url(#SVGID_00000123439097094227622420000001444554963990302386_);}
	.st53{fill:url(#SVGID_00000171695353574906813010000007760578049514474401_);}
</style>
<g>
	<polygon class="st2" points="462.2,1356.2 546.9,1224.3 462.2,1224.3 377.6,1224.3 	"/>
	<polygon class="st8" points="885.4,1224.3 800.8,1356.2 885.4,1356.2 970.1,1356.2 	"/>
	<polygon class="st2" points="1478,1356.2 1562.6,1224.3 1478,1224.3 1393.3,1224.3 	"/>
	<polygon class="st4" points="1901.2,1224.3 1816.5,1356.2 1901.2,1356.2 1985.8,1356.2 	"/>
	<polygon class="st4" points="2409.1,1224.3 2324.4,1356.2 2409.1,1356.2 2493.7,1356.2 	"/>
	<polygon class="st2" points="2493.7,1356.2 2578.4,1224.3 2493.7,1224.3 2409.1,1224.3 	"/>
	<polygon class="st0" points="208.3,1092.3 123.6,1224.3 208.3,1224.3 292.9,1224.3 	"/>
	<polygon class="st4" points="800.8,1224.3 885.4,1092.3 800.8,1092.3 716.2,1092.3 	"/>
	<polygon class="st2" points="1731.9,1092.3 1647.3,1224.3 1731.9,1224.3 1816.5,1224.3 	"/>
	<polygon class="st2" points="716.2,1092.3 631.5,1224.3 716.2,1224.3 800.8,1224.3 	"/>
	<linearGradient id="SVGID_1_" gradientUnits="userSpaceOnUse" x1="1985.8412" y1="1158.3129" x2="2155.1333" y2="1158.3129">
		<stop  offset="0" style="stop-color:#C6C6D3"/>
		<stop  offset="2.104237e-02" style="stop-color:#CCCCD9"/>
		<stop  offset="0.1398" style="stop-color:#EAEBF6"/>
		<stop  offset="0.2441" style="stop-color:#EAEBF6"/>
		<stop  offset="0.4265" style="stop-color:#C6C6D3"/>
		<stop  offset="0.5684" style="stop-color:#CECFDB"/>
		<stop  offset="0.7945" style="stop-color:#E5E6F1"/>
		<stop  offset="0.8387" style="stop-color:#EAEBF6"/>
		<stop  offset="1" style="stop-color:#C6C6D3"/>
	</linearGradient>
	<polygon class="st1" points="2070.5,1092.3 1985.8,1224.3 2070.5,1224.3 2155.1,1224.3 	"/>
	<polygon class="st2" points="2324.4,1224.3 2409.1,1092.3 2324.4,1092.3 2239.8,1092.3 	"/>
	<polygon class="st8" points="2663,1224.3 2747.7,1092.3 2663,1092.3 2578.4,1092.3 	"/>
	<polygon class="st4" points="292.9,1092.3 377.6,960.4 292.9,960.4 208.3,960.4 	"/>
	<polygon class="st3" points="546.9,960.4 462.2,1092.3 546.9,1092.3 631.5,1092.3 	"/>
	<polygon class="st0" points="1054.7,960.4 970.1,1092.3 1054.7,1092.3 1139.4,1092.3 	"/>
	
		<linearGradient id="SVGID_00000044144767722410299380000006835257829448046988_" gradientUnits="userSpaceOnUse" x1="1224.0276" y1="1026.365" x2="1393.3196" y2="1026.365">
		<stop  offset="0" style="stop-color:#C6C6D3"/>
		<stop  offset="2.104237e-02" style="stop-color:#CCCCD9"/>
		<stop  offset="0.1398" style="stop-color:#EAEBF6"/>
		<stop  offset="0.2441" style="stop-color:#EAEBF6"/>
		<stop  offset="0.4265" style="stop-color:#C6C6D3"/>
		<stop  offset="0.5684" style="stop-color:#CECFDB"/>
		<stop  offset="0.7945" style="stop-color:#E5E6F1"/>
		<stop  offset="0.8387" style="stop-color:#EAEBF6"/>
		<stop  offset="1" style="stop-color:#C6C6D3"/>
	</linearGradient>
	<polygon style="fill:url(#SVGID_00000044144767722410299380000006835257829448046988_);" points="1308.7,1092.3 1393.3,960.4 
		1308.7,960.4 1224,960.4 	"/>
	<polygon class="st4" points="1562.6,960.4 1478,1092.3 1562.6,1092.3 1647.3,1092.3 	"/>
	<polygon class="st2" points="1816.5,1092.3 1901.2,960.4 1816.5,960.4 1731.9,960.4 	"/>
	<polygon class="st0" points="1901.2,960.4 1816.5,1092.3 1901.2,1092.3 1985.8,1092.3 	"/>
	<polygon class="st4" points="2155.1,1092.3 2239.8,960.4 2155.1,960.4 2070.5,960.4 	"/>
	<polygon class="st3" points="2493.7,1092.3 2578.4,960.4 2493.7,960.4 2409.1,960.4 	"/>
	<polygon class="st4" points="631.5,960.4 716.2,828.4 631.5,828.4 546.9,828.4 	"/>
	<polygon class="st0" points="1478,960.4 1562.6,828.4 1478,828.4 1393.3,828.4 	"/>
	<polygon class="st4" points="2832.3,828.4 2747.7,960.4 2832.3,960.4 2916.9,960.4 	"/>
	<polygon class="st8" points="208.3,696.5 123.6,828.4 208.3,828.4 292.9,828.4 	"/>
	<polygon class="st2" points="462.2,828.4 546.9,696.5 462.2,696.5 377.6,696.5 	"/>
	<polygon class="st2" points="885.4,696.5 800.8,828.4 885.4,828.4 970.1,828.4 	"/>
	<polygon class="st4" points="1139.4,828.4 1224,696.5 1139.4,696.5 1054.7,696.5 	"/>
	<polygon class="st3" points="1731.9,696.5 1647.3,828.4 1731.9,828.4 1816.5,828.4 	"/>
	<polygon class="st4" points="1985.8,828.4 2070.5,696.5 1985.8,696.5 1901.2,696.5 	"/>
	<polygon class="st2" points="2239.8,696.5 2155.1,828.4 2239.8,828.4 2324.4,828.4 	"/>
	<polygon class="st2" points="2578.4,696.5 2493.7,828.4 2578.4,828.4 2663,828.4 	"/>
	<polygon class="st4" points="123.6,696.5 208.3,564.5 123.6,564.5 39,564.5 	"/>
	
		<linearGradient id="SVGID_00000014611470706629295840000006991759961822617784_" gradientUnits="userSpaceOnUse" x1="716.1519" y1="630.5207" x2="885.4439" y2="630.5207">
		<stop  offset="0" style="stop-color:#C6C6D3"/>
		<stop  offset="2.104237e-02" style="stop-color:#CCCCD9"/>
		<stop  offset="0.1398" style="stop-color:#EAEBF6"/>
		<stop  offset="0.2441" style="stop-color:#EAEBF6"/>
		<stop  offset="0.4265" style="stop-color:#C6C6D3"/>
		<stop  offset="0.5684" style="stop-color:#CECFDB"/>
		<stop  offset="0.7945" style="stop-color:#E5E6F1"/>
		<stop  offset="0.8387" style="stop-color:#EAEBF6"/>
		<stop  offset="1" style="stop-color:#C6C6D3"/>
	</linearGradient>
	<polygon style="fill:url(#SVGID_00000014611470706629295840000006991759961822617784_);" points="800.8,696.5 885.4,564.5 
		800.8,564.5 716.2,564.5 	"/>
	<polygon class="st2" points="1393.3,564.5 1308.7,696.5 1393.3,696.5 1478,696.5 	"/>
	<polygon class="st4" points="1647.3,696.5 1731.9,564.5 1647.3,564.5 1562.6,564.5 	"/>
	
		<linearGradient id="SVGID_00000066486029689863095670000011656830024911749822_" gradientUnits="userSpaceOnUse" x1="2239.7791" y1="630.5207" x2="2409.071" y2="630.5207">
		<stop  offset="0" style="stop-color:#C6C6D3"/>
		<stop  offset="2.104237e-02" style="stop-color:#CCCCD9"/>
		<stop  offset="0.1398" style="stop-color:#EAEBF6"/>
		<stop  offset="0.2441" style="stop-color:#EAEBF6"/>
		<stop  offset="0.4265" style="stop-color:#C6C6D3"/>
		<stop  offset="0.5684" style="stop-color:#CECFDB"/>
		<stop  offset="0.7945" style="stop-color:#E5E6F1"/>
		<stop  offset="0.8387" style="stop-color:#EAEBF6"/>
		<stop  offset="1" style="stop-color:#C6C6D3"/>
	</linearGradient>
	<polygon style="fill:url(#SVGID_00000066486029689863095670000011656830024911749822_);" points="2324.4,696.5 2409.1,564.5 
		2324.4,564.5 2239.8,564.5 	"/>
	<polygon class="st4" points="2409.1,564.5 2324.4,696.5 2409.1,696.5 2493.7,696.5 	"/>
	<polygon class="st0" points="2663,696.5 2747.7,564.5 2663,564.5 2578.4,564.5 	"/>
	<polygon class="st2" points="292.9,564.5 377.6,432.6 292.9,432.6 208.3,432.6 	"/>
	<polygon class="st0" points="377.6,432.6 292.9,564.5 377.6,564.5 462.2,564.5 	"/>
	<polygon class="st0" points="631.5,564.5 716.2,432.6 631.5,432.6 546.9,432.6 	"/>
	<polygon class="st8" points="1054.7,432.6 970.1,564.5 1054.7,564.5 1139.4,564.5 	"/>
	<polygon class="st4" points="1308.7,564.5 1393.3,432.6 1308.7,432.6 1224,432.6 	"/>
	<polygon class="st0" points="1901.2,432.6 1816.5,564.5 1901.2,564.5 1985.8,564.5 	"/>
	<polygon class="st2" points="2493.7,564.5 2578.4,432.6 2493.7,432.6 2409.1,432.6 	"/>
	<polygon class="st4" points="885.4,300.7 800.8,432.6 885.4,432.6 970.1,432.6 	"/>
	<polygon class="st2" points="1139.4,432.6 1224,300.7 1139.4,300.7 1054.7,300.7 	"/>
	
		<linearGradient id="SVGID_00000075852768953846277200000005971517234347502490_" gradientUnits="userSpaceOnUse" x1="1477.9655" y1="366.6245" x2="1647.2574" y2="366.6245">
		<stop  offset="0" style="stop-color:#C6C6D3"/>
		<stop  offset="2.104237e-02" style="stop-color:#CCCCD9"/>
		<stop  offset="0.1398" style="stop-color:#EAEBF6"/>
		<stop  offset="0.2441" style="stop-color:#EAEBF6"/>
		<stop  offset="0.4265" style="stop-color:#C6C6D3"/>
		<stop  offset="0.5684" style="stop-color:#CECFDB"/>
		<stop  offset="0.7945" style="stop-color:#E5E6F1"/>
		<stop  offset="0.8387" style="stop-color:#EAEBF6"/>
		<stop  offset="1" style="stop-color:#C6C6D3"/>
	</linearGradient>
	<polygon style="fill:url(#SVGID_00000075852768953846277200000005971517234347502490_);" points="1562.6,300.7 1478,432.6 
		1562.6,432.6 1647.3,432.6 	"/>
	<polygon class="st4" points="2155.1,432.6 2239.8,300.7 2155.1,300.7 2070.5,300.7 	"/>
	<polygon class="st4" points="2747.7,300.7 2663,432.6 2747.7,432.6 2832.3,432.6 	"/>
	
		<linearGradient id="SVGID_00000060017735526338059820000009511752362857433747_" gradientUnits="userSpaceOnUse" x1="123.6303" y1="234.6764" x2="292.9223" y2="234.6764">
		<stop  offset="0" style="stop-color:#C6C6D3"/>
		<stop  offset="2.104237e-02" style="stop-color:#CCCCD9"/>
		<stop  offset="0.1398" style="stop-color:#EAEBF6"/>
		<stop  offset="0.2441" style="stop-color:#EAEBF6"/>
		<stop  offset="0.4265" style="stop-color:#C6C6D3"/>
		<stop  offset="0.5684" style="stop-color:#CECFDB"/>
		<stop  offset="0.7945" style="stop-color:#E5E6F1"/>
		<stop  offset="0.8387" style="stop-color:#EAEBF6"/>
		<stop  offset="1" style="stop-color:#C6C6D3"/>
	</linearGradient>
	<polygon style="fill:url(#SVGID_00000060017735526338059820000009511752362857433747_);" points="208.3,168.7 123.6,300.7 
		208.3,300.7 292.9,300.7 	"/>
	<polygon class="st8" points="462.2,300.7 546.9,168.7 462.2,168.7 377.6,168.7 	"/>
	<polygon class="st2" points="716.2,168.7 631.5,300.7 716.2,300.7 800.8,300.7 	"/>
	<polygon class="st4" points="1308.7,300.7 1393.3,168.7 1308.7,168.7 1224,168.7 	"/>
	<polygon class="st2" points="1393.3,168.7 1308.7,300.7 1393.3,300.7 1478,300.7 	"/>
	<polygon class="st8" points="1731.9,168.7 1647.3,300.7 1731.9,300.7 1816.5,300.7 	"/>
	<polygon class="st2" points="1985.8,300.7 2070.5,168.7 1985.8,168.7 1901.2,168.7 	"/>
	<polygon class="st8" points="2409.1,168.7 2324.4,300.7 2409.1,300.7 2493.7,300.7 	"/>
	<polygon class="st3" points="2663,300.7 2747.7,168.7 2663,168.7 2578.4,168.7 	"/>
	<polygon class="st4" points="292.9,168.7 377.6,36.8 292.9,36.8 208.3,36.8 	"/>
	<polygon class="st0" points="800.8,168.7 885.4,36.8 800.8,36.8 716.2,36.8 	"/>
	<polygon class="st3" points="1054.7,36.8 970.1,168.7 1054.7,168.7 1139.4,168.7 	"/>
	<polygon class="st2" points="1478,168.7 1562.6,36.8 1478,36.8 1393.3,36.8 	"/>
	<polygon class="st0" points="2239.8,36.8 2155.1,168.7 2239.8,168.7 2324.4,168.7 	"/>
	<polygon class="st4" points="2493.7,168.7 2578.4,36.8 2493.7,36.8 2409.1,36.8 	"/>
</g>
</svg>
