<?xml version="1.0" encoding="utf-8"?>
<!-- Generator: Adobe Illustrator 27.0.0, SVG Export Plug-In . SVG Version: 6.00 Build 0)  -->
<svg version="1.1" id="Capa_1" xmlns="http://www.w3.org/2000/svg" xmlns:xlink="http://www.w3.org/1999/xlink" x="0px" y="0px"
	 viewBox="0 0 1731.7 1306.8" style="enable-background:new 0 0 1731.7 1306.8;" xml:space="preserve">
<style type="text/css">
	.st0{fill:#FCC433;}
	.st1{fill:url(#SVGID_1_);}
	.st2{fill:#28337E;}
	.st3{fill:#C7CCD5;}
	.st4{fill:#F29232;}
	.st5{fill:url(#SVGID_00000159466340144579158900000006277739458215874985_);}
	.st6{fill:url(#SVGID_00000152258841841712609730000011158338458987639939_);}
	.st7{fill:url(#SVGID_00000047037777506223324340000004493915435860121474_);}
	.st8{fill:#3A3938;}
	.st9{fill:url(#SVGID_00000086693324393839811170000005038911244290815895_);}
	.st10{fill:url(#SVGID_00000152981713700650368410000010568038987448708767_);}
	.st11{fill:url(#SVGID_00000088817733003684422810000007218811598749453455_);}
	.st12{fill:url(#SVGID_00000129168758471237127960000010435608397617145757_);}
	.st13{fill:url(#SVGID_00000049914002043362489180000002533706346925559449_);}
	.st14{fill:url(#SVGID_00000016061941245246519280000008120215351988667012_);}
	.st15{fill:url(#SVGID_00000007401869619743343860000007192927135249594290_);}
	.st16{fill:url(#SVGID_00000129201822123759038770000008978749733627368598_);}
	.st17{fill:url(#SVGID_00000101811368633474760530000014279479980862328503_);}
	.st18{fill:url(#SVGID_00000098899818980059503130000005714628558260010920_);}
	.st19{fill:url(#SVGID_00000117647141824771898740000016313752193077065886_);}
	.st20{fill:url(#SVGID_00000038388582273778701260000007589776077465111178_);}
	.st21{fill:url(#SVGID_00000168835534851713432160000017356952251802148773_);}
	.st22{fill:url(#SVGID_00000131328772075746996550000001143684644491050379_);}
	.st23{fill:url(#SVGID_00000075129866671720261530000011891673074337911954_);}
	.st24{fill:url(#SVGID_00000137131830624354083120000014843109004335397530_);}
	.st25{fill:url(#SVGID_00000126325436693739911440000012077543546045095558_);}
	.st26{fill:url(#SVGID_00000178924826932747610180000013000951147756991390_);}
	.st27{fill:url(#SVGID_00000109024222208025807870000015638347061441993404_);}
	.st28{fill:url(#SVGID_00000089552796378623454290000003681701896745962678_);}
	.st29{fill:url(#SVGID_00000032608935670892577940000010151355810783599770_);}
	.st30{fill:url(#SVGID_00000065783153834948482120000016142728040513256578_);}
	.st31{fill:url(#SVGID_00000044866478337165440530000003919760554056247981_);}
	.st32{fill:url(#SVGID_00000108277255222570622620000005947939232837284533_);}
	.st33{fill:url(#SVGID_00000170988509319517881410000002336990102795366530_);}
	.st34{fill:url(#SVGID_00000109020245588900312230000014144670477648449669_);}
	.st35{fill:url(#SVGID_00000100368937598931257440000005914630012780830391_);}
	.st36{fill:url(#SVGID_00000108293391176775673900000003232416857096567186_);}
	.st37{fill:url(#SVGID_00000021088421138315242290000000997663380843206573_);}
	.st38{fill:url(#SVGID_00000147941918900119754260000008776278598096677302_);}
	.st39{fill:url(#SVGID_00000149372500573099686150000010012364578555946394_);}
	.st40{fill:url(#SVGID_00000167386583357893079190000007952851135571229112_);}
	.st41{fill:url(#SVGID_00000005251603343311123160000010570164796796189571_);}
	.st42{fill:url(#SVGID_00000167371495011282590260000009581720495388004747_);}
	.st43{fill:url(#SVGID_00000050646722382221759210000013434935918563335846_);}
	.st44{fill:url(#SVGID_00000139278922045041688560000016938319890120943024_);}
	.st45{fill:url(#SVGID_00000081620242205976621060000003525323734787440016_);}
	.st46{fill:url(#SVGID_00000152954394183849353090000003134036039320869269_);}
	.st47{fill:url(#SVGID_00000123426104942873257360000010883635704897168268_);}
	.st48{fill:url(#SVGID_00000149362710155187979360000015139918542198346938_);}
	.st49{fill:url(#SVGID_00000109027082205950709330000017949655231139482007_);}
	.st50{fill:url(#SVGID_00000069377800967140512520000018003427120821585296_);}
	.st51{fill:url(#SVGID_00000082336941324198417660000011924423793205863581_);}
	.st52{fill:url(#SVGID_00000021105183312665294170000011027310816027244461_);}
	.st53{fill:url(#SVGID_00000050644613080630632900000018048910979454543515_);}
</style>
<g>
	<polygon class="st0" points="1080.7,290.3 1168.1,346.4 1168.1,290.3 1168.1,234.2 	"/>
	<linearGradient id="SVGID_1_" gradientUnits="userSpaceOnUse" x1="1080.7017" y1="178.1464" x2="1168.1353" y2="178.1464">
		<stop  offset="0" style="stop-color:#C6C6D3"/>
		<stop  offset="2.104237e-02" style="stop-color:#CCCCD9"/>
		<stop  offset="0.1398" style="stop-color:#EAEBF6"/>
		<stop  offset="0.2441" style="stop-color:#EAEBF6"/>
		<stop  offset="0.4265" style="stop-color:#C6C6D3"/>
		<stop  offset="0.5684" style="stop-color:#CECFDB"/>
		<stop  offset="0.7945" style="stop-color:#E5E6F1"/>
		<stop  offset="0.8387" style="stop-color:#EAEBF6"/>
		<stop  offset="1" style="stop-color:#C6C6D3"/>
	</linearGradient>
	<polygon class="st1" points="1080.7,178.1 1168.1,234.2 1168.1,178.1 1168.1,122.1 	"/>
	<polygon class="st2" points="1168.1,234.2 1080.7,178.1 1080.7,234.2 1080.7,290.3 	"/>
	<polygon class="st3" points="425.8,248.1 376.7,216.6 376.7,248.1 376.7,279.6 	"/>
	<polygon class="st2" points="231.9,890.8 319.3,946.9 319.3,890.8 319.3,834.7 	"/>
	<polygon class="st2" points="320.2,1059.1 407.6,1115.1 407.6,1059.1 407.6,1003 	"/>
	<polygon class="st4" points="320.2,946.9 407.6,1003 407.6,946.9 407.6,890.8 	"/>
	<polygon class="st0" points="407.6,1003 495,1059.1 495,1003 495,946.9 	"/>
	<polygon class="st4" points="407.6,1003 320.2,946.9 320.2,1003 320.2,1059.1 	"/>
	<polygon class="st3" points="320.3,1143.5 232.9,1087.4 232.9,1143.5 232.9,1199.6 	"/>
	
		<linearGradient id="SVGID_00000032642577256034860470000008902829028786668981_" gradientUnits="userSpaceOnUse" x1="232.7477" y1="1002.9608" x2="320.1813" y2="1002.9608">
		<stop  offset="0" style="stop-color:#C6C6D3"/>
		<stop  offset="2.104237e-02" style="stop-color:#CCCCD9"/>
		<stop  offset="0.1398" style="stop-color:#EAEBF6"/>
		<stop  offset="0.2441" style="stop-color:#EAEBF6"/>
		<stop  offset="0.4265" style="stop-color:#C6C6D3"/>
		<stop  offset="0.5684" style="stop-color:#CECFDB"/>
		<stop  offset="0.7945" style="stop-color:#E5E6F1"/>
		<stop  offset="0.8387" style="stop-color:#EAEBF6"/>
		<stop  offset="1" style="stop-color:#C6C6D3"/>
	</linearGradient>
	<polygon style="fill:url(#SVGID_00000032642577256034860470000008902829028786668981_);" points="232.7,1003 320.2,1059.1 
		320.2,1003 320.2,946.9 	"/>
	<polygon class="st3" points="319.4,793.4 406.9,849.5 406.9,793.4 406.9,737.3 	"/>
	<polygon class="st2" points="406.8,890.8 319.3,834.7 319.3,890.8 319.3,946.9 	"/>
	<polygon class="st4" points="520,1058.3 607.5,1114.4 607.5,1058.3 607.5,1002.2 	"/>
	
		<linearGradient id="SVGID_00000062905230830606193340000010467280125963827108_" gradientUnits="userSpaceOnUse" x1="607.46" y1="1002.1909" x2="694.8936" y2="1002.1909">
		<stop  offset="0" style="stop-color:#C6C6D3"/>
		<stop  offset="2.104237e-02" style="stop-color:#CCCCD9"/>
		<stop  offset="0.1398" style="stop-color:#EAEBF6"/>
		<stop  offset="0.2441" style="stop-color:#EAEBF6"/>
		<stop  offset="0.4265" style="stop-color:#C6C6D3"/>
		<stop  offset="0.5684" style="stop-color:#CECFDB"/>
		<stop  offset="0.7945" style="stop-color:#E5E6F1"/>
		<stop  offset="0.8387" style="stop-color:#EAEBF6"/>
		<stop  offset="1" style="stop-color:#C6C6D3"/>
	</linearGradient>
	<polygon style="fill:url(#SVGID_00000062905230830606193340000010467280125963827108_);" points="607.5,1002.2 694.9,1058.3 
		694.9,1002.2 694.9,946.1 	"/>
	<polygon class="st2" points="694.9,1058.3 607.5,1002.2 607.5,1058.3 607.5,1114.4 	"/>
	<polygon class="st0" points="320.2,946.9 232.7,890.8 232.7,946.9 232.7,1003 	"/>
	<polygon class="st2" points="303.4,827.6 260.9,800.4 260.9,827.6 260.9,854.9 	"/>
	<polygon class="st0" points="40.4,793.3 127.8,849.4 127.8,793.3 127.8,737.2 	"/>
	<polygon class="st2" points="128.7,849.4 216.1,905.5 216.1,849.4 216.1,793.3 	"/>
	<polygon class="st4" points="216.1,905.5 128.7,849.4 128.7,905.5 128.7,961.6 	"/>
	<polygon class="st3" points="41.2,905.5 128.7,961.6 128.7,905.5 128.7,849.4 	"/>
	
		<linearGradient id="SVGID_00000152979049347805185370000009584206545364685708_" gradientUnits="userSpaceOnUse" x1="127.7195" y1="600.0697" x2="215.1531" y2="600.0697">
		<stop  offset="0" style="stop-color:#C6C6D3"/>
		<stop  offset="2.104237e-02" style="stop-color:#CCCCD9"/>
		<stop  offset="0.1398" style="stop-color:#EAEBF6"/>
		<stop  offset="0.2441" style="stop-color:#EAEBF6"/>
		<stop  offset="0.4265" style="stop-color:#C6C6D3"/>
		<stop  offset="0.5684" style="stop-color:#CECFDB"/>
		<stop  offset="0.7945" style="stop-color:#E5E6F1"/>
		<stop  offset="0.8387" style="stop-color:#EAEBF6"/>
		<stop  offset="1" style="stop-color:#C6C6D3"/>
	</linearGradient>
	<polygon style="fill:url(#SVGID_00000152979049347805185370000009584206545364685708_);" points="127.7,600.1 215.2,656.2 
		215.2,600.1 215.2,544 	"/>
	<polygon class="st2" points="215.2,793.3 127.8,737.2 127.8,793.3 127.8,849.4 	"/>
	<polygon class="st4" points="128.7,849.4 41.2,793.3 41.2,849.4 41.2,905.5 	"/>
	<polygon class="st8" points="111.9,730.2 69.4,702.9 69.4,730.2 69.4,757.4 	"/>
	<polygon class="st3" points="554.2,1003 511.7,975.7 511.7,1003 511.7,1030.2 	"/>
	<polygon class="st2" points="618.7,889.4 599.7,877.2 599.7,889.4 599.7,901.6 	"/>
	<polygon class="st2" points="451.3,869.9 495,898 495,869.9 495,841.9 	"/>
	
		<linearGradient id="SVGID_00000144303296047905733810000017588419356351642241_" gradientUnits="userSpaceOnUse" x1="407.6149" y1="946.8713" x2="495.0485" y2="946.8713">
		<stop  offset="0" style="stop-color:#C6C6D3"/>
		<stop  offset="2.104237e-02" style="stop-color:#CCCCD9"/>
		<stop  offset="0.1398" style="stop-color:#EAEBF6"/>
		<stop  offset="0.2441" style="stop-color:#EAEBF6"/>
		<stop  offset="0.4265" style="stop-color:#C6C6D3"/>
		<stop  offset="0.5684" style="stop-color:#CECFDB"/>
		<stop  offset="0.7945" style="stop-color:#E5E6F1"/>
		<stop  offset="0.8387" style="stop-color:#EAEBF6"/>
		<stop  offset="1" style="stop-color:#C6C6D3"/>
	</linearGradient>
	<polygon style="fill:url(#SVGID_00000144303296047905733810000017588419356351642241_);" points="495,946.9 407.6,890.8 
		407.6,946.9 407.6,1003 	"/>
	<polygon class="st8" points="494.3,656.1 406.9,600.1 406.9,656.1 406.9,712.2 	"/>
	<polygon class="st2" points="495,1059.1 407.6,1003 407.6,1059.1 407.6,1115.1 	"/>
	<polygon class="st0" points="328,691 278.9,659.5 278.9,691 278.9,722.5 	"/>
	<polygon class="st8" points="777.5,1042 735,1014.7 735,1042 735,1069.2 	"/>
	<polygon class="st0" points="505.6,831.2 593,775.1 593,831.2 593,887.3 	"/>
	<polygon class="st4" points="497.8,632.8 528.6,613 528.6,632.8 528.6,652.5 	"/>
	<polygon class="st2" points="1191.8,1154 1253.4,1193.5 1253.4,1154 1253.4,1114.4 	"/>
	<polygon class="st3" points="1222.4,737.5 1309.8,793.6 1309.8,737.5 1309.8,681.4 	"/>
	<polygon class="st8" points="1288,529.8 1235.2,515.8 1244.2,543.9 1253.2,572 	"/>
	<polygon class="st4" points="1222.5,1041.7 1135.1,985.6 1135.1,1041.7 1135.1,1097.8 	"/>
	<polygon class="st2" points="1135.1,985.6 1222.5,1041.7 1222.5,985.6 1222.5,929.5 	"/>
	
		<linearGradient id="SVGID_00000023978183780202399950000003540501058672145561_" gradientUnits="userSpaceOnUse" x1="1135.0579" y1="929.4837" x2="1222.4915" y2="929.4837">
		<stop  offset="0" style="stop-color:#C6C6D3"/>
		<stop  offset="2.104237e-02" style="stop-color:#CCCCD9"/>
		<stop  offset="0.1398" style="stop-color:#EAEBF6"/>
		<stop  offset="0.2441" style="stop-color:#EAEBF6"/>
		<stop  offset="0.4265" style="stop-color:#C6C6D3"/>
		<stop  offset="0.5684" style="stop-color:#CECFDB"/>
		<stop  offset="0.7945" style="stop-color:#E5E6F1"/>
		<stop  offset="0.8387" style="stop-color:#EAEBF6"/>
		<stop  offset="1" style="stop-color:#C6C6D3"/>
	</linearGradient>
	<polygon style="fill:url(#SVGID_00000023978183780202399950000003540501058672145561_);" points="1222.5,929.5 1135.1,873.4 
		1135.1,929.5 1135.1,985.6 	"/>
	<polygon class="st8" points="1205.7,810.2 1163.2,783 1163.2,810.2 1163.2,837.5 	"/>
	<polygon class="st0" points="1208.5,1237.2 1174.9,1215.7 1174.9,1237.2 1174.9,1258.7 	"/>
	<polygon class="st0" points="960.2,1097.8 1047.6,1041.7 1047.6,1097.8 1047.6,1153.8 	"/>
	<polygon class="st4" points="960.2,1209.9 1047.6,1153.8 1047.6,1209.9 1047.6,1266 	"/>
	<polygon class="st2" points="960.2,985.6 1047.6,929.5 1047.6,985.6 1047.6,1041.7 	"/>
	
		<linearGradient id="SVGID_00000005224668893653220850000004328487908228464520_" gradientUnits="userSpaceOnUse" x1="960.1876" y1="1041.6669" x2="1047.6212" y2="1041.6669">
		<stop  offset="0" style="stop-color:#C6C6D3"/>
		<stop  offset="2.104237e-02" style="stop-color:#CCCCD9"/>
		<stop  offset="0.1398" style="stop-color:#EAEBF6"/>
		<stop  offset="0.2441" style="stop-color:#EAEBF6"/>
		<stop  offset="0.4265" style="stop-color:#C6C6D3"/>
		<stop  offset="0.5684" style="stop-color:#CECFDB"/>
		<stop  offset="0.7945" style="stop-color:#E5E6F1"/>
		<stop  offset="0.8387" style="stop-color:#EAEBF6"/>
		<stop  offset="1" style="stop-color:#C6C6D3"/>
	</linearGradient>
	<polygon style="fill:url(#SVGID_00000005224668893653220850000004328487908228464520_);" points="1047.6,1041.7 960.2,1097.8 
		960.2,1041.7 960.2,985.6 	"/>
	<polygon class="st4" points="1047.6,1153.8 960.2,1209.9 960.2,1153.8 960.2,1097.8 	"/>
	<polygon class="st0" points="1047.6,1041.7 1135.1,985.6 1135.1,1041.7 1135.1,1097.8 	"/>
	<polygon class="st3" points="1047.6,1153.8 1135.1,1097.8 1135.1,1153.8 1135.1,1209.9 	"/>
	<polygon class="st8" points="1135.1,1097.8 1047.6,1153.8 1047.6,1097.8 1047.6,1041.7 	"/>
	<polygon class="st3" points="1135.1,1209.9 1047.6,1266 1047.6,1209.9 1047.6,1153.8 	"/>
	<polygon class="st2" points="1135.1,985.6 1047.6,1041.7 1047.6,985.6 1047.6,929.5 	"/>
	<polygon class="st0" points="1691.4,1193.3 1648.8,1166 1648.8,1193.3 1648.8,1220.6 	"/>
	<polygon class="st4" points="1346.9,1108.2 1434.3,1052.1 1434.3,1108.2 1434.3,1164.3 	"/>
	
		<linearGradient id="SVGID_00000100346063854827749910000008890601744994730898_" gradientUnits="userSpaceOnUse" x1="1521.7345" y1="996.0515" x2="1609.1681" y2="996.0515">
		<stop  offset="0" style="stop-color:#C6C6D3"/>
		<stop  offset="2.104237e-02" style="stop-color:#CCCCD9"/>
		<stop  offset="0.1398" style="stop-color:#EAEBF6"/>
		<stop  offset="0.2441" style="stop-color:#EAEBF6"/>
		<stop  offset="0.4265" style="stop-color:#C6C6D3"/>
		<stop  offset="0.5684" style="stop-color:#CECFDB"/>
		<stop  offset="0.7945" style="stop-color:#E5E6F1"/>
		<stop  offset="0.8387" style="stop-color:#EAEBF6"/>
		<stop  offset="1" style="stop-color:#C6C6D3"/>
	</linearGradient>
	<polygon style="fill:url(#SVGID_00000100346063854827749910000008890601744994730898_);" points="1521.7,996.1 1609.2,940 
		1609.2,996.1 1609.2,1052.1 	"/>
	<polygon class="st4" points="1346.9,1220.4 1434.3,1164.3 1434.3,1220.4 1434.3,1276.5 	"/>
	
		<linearGradient id="SVGID_00000043458087315913184400000004837649253027211446_" gradientUnits="userSpaceOnUse" x1="1346.8673" y1="996.0515" x2="1434.3009" y2="996.0515">
		<stop  offset="0" style="stop-color:#C6C6D3"/>
		<stop  offset="2.104237e-02" style="stop-color:#CCCCD9"/>
		<stop  offset="0.1398" style="stop-color:#EAEBF6"/>
		<stop  offset="0.2441" style="stop-color:#EAEBF6"/>
		<stop  offset="0.4265" style="stop-color:#C6C6D3"/>
		<stop  offset="0.5684" style="stop-color:#CECFDB"/>
		<stop  offset="0.7945" style="stop-color:#E5E6F1"/>
		<stop  offset="0.8387" style="stop-color:#EAEBF6"/>
		<stop  offset="1" style="stop-color:#C6C6D3"/>
	</linearGradient>
	<polygon style="fill:url(#SVGID_00000043458087315913184400000004837649253027211446_);" points="1346.9,996.1 1434.3,940 
		1434.3,996.1 1434.3,1052.1 	"/>
	<polygon class="st0" points="1420,854.8 1361.5,892.4 1361.5,854.8 1361.5,817.2 	"/>
	<polygon class="st2" points="1434.3,1052.1 1346.9,1108.2 1346.9,1052.1 1346.9,996.1 	"/>
	<polygon class="st0" points="1434.3,1164.3 1346.9,1220.4 1346.9,1164.3 1346.9,1108.2 	"/>
	<polygon class="st0" points="1434.3,1052.1 1521.7,996.1 1521.7,1052.1 1521.7,1108.2 	"/>
	<polygon class="st3" points="1434.3,1164.3 1521.7,1108.2 1521.7,1164.3 1521.7,1220.4 	"/>
	<polygon class="st2" points="1521.7,1108.2 1609.2,1052.1 1609.2,1108.2 1609.2,1164.3 	"/>
	<polygon class="st4" points="1521.7,1108.2 1434.3,1164.3 1434.3,1108.2 1434.3,1052.1 	"/>
	<polygon class="st2" points="1609.2,1164.3 1521.7,1220.4 1521.7,1164.3 1521.7,1108.2 	"/>
	<polygon class="st4" points="1521.7,1220.4 1434.3,1276.5 1434.3,1220.4 1434.3,1164.3 	"/>
	<polygon class="st2" points="1434.3,940 1521.7,883.9 1521.7,940 1521.7,996.1 	"/>
	<polygon class="st2" points="1521.7,996.1 1434.3,1052.1 1434.3,996.1 1434.3,940 	"/>
	<polygon class="st0" points="1609.2,940 1521.7,996.1 1521.7,940 1521.7,883.9 	"/>
	<polygon class="st8" points="1609.2,1052.1 1521.7,1108.2 1521.7,1052.1 1521.7,996.1 	"/>
	<polygon class="st4" points="1653,757.4 1565.6,813.5 1565.6,757.4 1565.6,701.3 	"/>
	<polygon class="st8" points="861.2,725.2 948.7,669.1 948.7,725.2 948.7,781.3 	"/>
	
		<linearGradient id="SVGID_00000049206694220884953940000004273584921681834164_" gradientUnits="userSpaceOnUse" x1="686.3622" y1="837.3712" x2="773.7958" y2="837.3712">
		<stop  offset="0" style="stop-color:#C6C6D3"/>
		<stop  offset="2.104237e-02" style="stop-color:#CCCCD9"/>
		<stop  offset="0.1398" style="stop-color:#EAEBF6"/>
		<stop  offset="0.2441" style="stop-color:#EAEBF6"/>
		<stop  offset="0.4265" style="stop-color:#C6C6D3"/>
		<stop  offset="0.5684" style="stop-color:#CECFDB"/>
		<stop  offset="0.7945" style="stop-color:#E5E6F1"/>
		<stop  offset="0.8387" style="stop-color:#EAEBF6"/>
		<stop  offset="1" style="stop-color:#C6C6D3"/>
	</linearGradient>
	<polygon style="fill:url(#SVGID_00000049206694220884953940000004273584921681834164_);" points="686.4,837.4 773.8,781.3 
		773.8,837.4 773.8,893.5 	"/>
	
		<linearGradient id="SVGID_00000146499815985183569560000005879286385024332214_" gradientUnits="userSpaceOnUse" x1="600.0126" y1="635.5519" x2="687.4462" y2="635.5519">
		<stop  offset="0" style="stop-color:#C6C6D3"/>
		<stop  offset="2.104237e-02" style="stop-color:#CCCCD9"/>
		<stop  offset="0.1398" style="stop-color:#EAEBF6"/>
		<stop  offset="0.2441" style="stop-color:#EAEBF6"/>
		<stop  offset="0.4265" style="stop-color:#C6C6D3"/>
		<stop  offset="0.5684" style="stop-color:#CECFDB"/>
		<stop  offset="0.7945" style="stop-color:#E5E6F1"/>
		<stop  offset="0.8387" style="stop-color:#EAEBF6"/>
		<stop  offset="1" style="stop-color:#C6C6D3"/>
	</linearGradient>
	<polygon style="fill:url(#SVGID_00000146499815985183569560000005879286385024332214_);" points="600,635.6 687.4,579.5 
		687.4,635.6 687.4,691.6 	"/>
	<polygon class="st3" points="1036.1,613 1123.5,556.9 1123.5,613 1123.5,669.1 	"/>
	<polygon class="st4" points="861.2,837.4 948.7,781.3 948.7,837.4 948.7,893.5 	"/>
	<polygon class="st2" points="861.2,613 948.7,556.9 948.7,613 948.7,669.1 	"/>
	<polygon class="st2" points="892.9,352.6 866.5,369.5 866.5,352.6 866.5,335.6 	"/>
	<polygon class="st4" points="753.4,674.2 704.8,705.4 704.8,674.2 704.8,642.9 	"/>
	<polygon class="st0" points="948.7,458.5 861.2,514.6 861.2,458.5 861.2,402.4 	"/>
	<polygon class="st2" points="773.8,781.3 686.4,837.4 686.4,781.3 686.4,725.2 	"/>
	<polygon class="st3" points="948.7,669.1 861.2,725.2 861.2,669.1 861.2,613 	"/>
	<polygon class="st0" points="948.7,781.3 861.2,837.4 861.2,781.3 861.2,725.2 	"/>
	<polygon class="st4" points="948.7,669.1 1036.1,613 1036.1,669.1 1036.1,725.2 	"/>
	<polygon class="st0" points="948.7,781.3 1036.1,725.2 1036.1,781.3 1036.1,837.4 	"/>
	<polygon class="st0" points="773.8,781.3 861.2,725.2 861.2,781.3 861.2,837.4 	"/>
	<polygon class="st2" points="1036.1,725.2 1123.5,669.1 1123.5,725.2 1123.5,781.3 	"/>
	
		<linearGradient id="SVGID_00000133486972409728416060000013281069875243000987_" gradientUnits="userSpaceOnUse" x1="968.44" y1="403.3734" x2="1023.9004" y2="403.3734">
		<stop  offset="0" style="stop-color:#C6C6D3"/>
		<stop  offset="2.104237e-02" style="stop-color:#CCCCD9"/>
		<stop  offset="0.1398" style="stop-color:#EAEBF6"/>
		<stop  offset="0.2441" style="stop-color:#EAEBF6"/>
		<stop  offset="0.4265" style="stop-color:#C6C6D3"/>
		<stop  offset="0.5684" style="stop-color:#CECFDB"/>
		<stop  offset="0.7945" style="stop-color:#E5E6F1"/>
		<stop  offset="0.8387" style="stop-color:#EAEBF6"/>
		<stop  offset="1" style="stop-color:#C6C6D3"/>
	</linearGradient>
	<polygon style="fill:url(#SVGID_00000133486972409728416060000013281069875243000987_);" points="968.4,403.4 1023.9,367.8 
		1023.9,403.4 1023.9,439 	"/>
	<polygon class="st4" points="1036.1,725.2 948.7,781.3 948.7,725.2 948.7,669.1 	"/>
	<polygon class="st2" points="861.2,725.2 773.8,781.3 773.8,725.2 773.8,669.1 	"/>
	
		<linearGradient id="SVGID_00000012469524369730972270000003083097571003065985_" gradientUnits="userSpaceOnUse" x1="1036.0967" y1="781.2817" x2="1123.5303" y2="781.2817">
		<stop  offset="0" style="stop-color:#C6C6D3"/>
		<stop  offset="2.104237e-02" style="stop-color:#CCCCD9"/>
		<stop  offset="0.1398" style="stop-color:#EAEBF6"/>
		<stop  offset="0.2441" style="stop-color:#EAEBF6"/>
		<stop  offset="0.4265" style="stop-color:#C6C6D3"/>
		<stop  offset="0.5684" style="stop-color:#CECFDB"/>
		<stop  offset="0.7945" style="stop-color:#E5E6F1"/>
		<stop  offset="0.8387" style="stop-color:#EAEBF6"/>
		<stop  offset="1" style="stop-color:#C6C6D3"/>
	</linearGradient>
	<polygon style="fill:url(#SVGID_00000012469524369730972270000003083097571003065985_);" points="1123.5,781.3 1036.1,837.4 
		1036.1,781.3 1036.1,725.2 	"/>
	<polygon class="st2" points="1036.1,837.4 948.7,893.5 948.7,837.4 948.7,781.3 	"/>
	<polygon class="st2" points="861.2,837.4 773.8,893.5 773.8,837.4 773.8,781.3 	"/>
	<polygon class="st4" points="948.7,556.9 1036.1,500.8 1036.1,556.9 1036.1,613 	"/>
	<polygon class="st2" points="1036.1,613 948.7,669.1 948.7,613 948.7,556.9 	"/>
	<polygon class="st2" points="1123.5,556.9 1036.1,613 1036.1,556.9 1036.1,500.8 	"/>
	<polygon class="st0" points="1123.5,669.1 1036.1,725.2 1036.1,669.1 1036.1,613 	"/>
	<polygon class="st4" points="861,86.4 948.5,30.3 948.5,86.4 948.5,142.5 	"/>
	<polygon class="st2" points="773.8,669.1 861.2,613 861.2,669.1 861.2,725.2 	"/>
</g>
</svg>
