<?xml version="1.0" encoding="utf-8"?>
<!-- Generator: Adobe Illustrator 27.0.0, SVG Export Plug-In . SVG Version: 6.00 Build 0)  -->
<svg version="1.1" id="Capa_1" xmlns="http://www.w3.org/2000/svg" xmlns:xlink="http://www.w3.org/1999/xlink" x="0px" y="0px"
	 viewBox="0 0 2953.5 1352.2" style="enable-background:new 0 0 2953.5 1352.2;" xml:space="preserve">
<style type="text/css">
	.st0{fill:#FCC433;}
	.st1{fill:url(#SVGID_1_);}
	.st2{fill:#28337E;}
	.st3{fill:#C7CCD5;}
	.st4{fill:#F29232;}
	.st5{fill:url(#SVGID_00000172439982685613234290000006259403957431343529_);}
	.st6{fill:url(#SVGID_00000047738865438900607630000001448556029120283809_);}
	.st7{fill:url(#SVGID_00000079474487533496737010000001922874052991965089_);}
	.st8{fill:#3A3938;}
	.st9{fill:url(#SVGID_00000170274708964051186200000000800956779716692127_);}
	.st10{fill:url(#SVGID_00000000938354269090575170000016303549931952188346_);}
	.st11{fill:url(#SVGID_00000121969061673946499060000011669598364262620857_);}
	.st12{fill:url(#SVGID_00000145018304373207116760000002565541820331314577_);}
	.st13{fill:url(#SVGID_00000090998946928713504070000002250389211735578769_);}
	.st14{fill:url(#SVGID_00000121969708462795684490000010512338854845008025_);}
	.st15{fill:url(#SVGID_00000135686870175490589830000007457454809609943446_);}
	.st16{fill:url(#SVGID_00000031928105088565321350000010492382442360788905_);}
	.st17{fill:url(#SVGID_00000041289931277797304030000003058217010588694672_);}
	.st18{fill:url(#SVGID_00000151516207557796954630000018338574139237947045_);}
	.st19{fill:url(#SVGID_00000034054002682919305900000003415446945059836556_);}
	.st20{fill:url(#SVGID_00000085210377079963359260000000135432836872205225_);}
	.st21{fill:url(#SVGID_00000008864866713807310260000011403292892184041904_);}
	.st22{fill:url(#SVGID_00000057121705540265946200000011528965232224255616_);}
	.st23{fill:url(#SVGID_00000086671549904134946520000015925414867357897374_);}
	.st24{fill:url(#SVGID_00000111879441481898132400000017465388328375317675_);}
	.st25{fill:url(#SVGID_00000114791750455907922800000014299138011581598635_);}
	.st26{fill:url(#SVGID_00000086669387470567503240000010454200256552204936_);}
	.st27{fill:url(#SVGID_00000182522878727518480600000017920644509518506421_);}
	.st28{fill:url(#SVGID_00000150101753331414316230000005449458412625125299_);}
	.st29{fill:url(#SVGID_00000116193823460037986630000008379338048880299907_);}
	.st30{fill:url(#SVGID_00000063592474762956856400000013734892887967624885_);}
	.st31{fill:url(#SVGID_00000103232459338522495830000013848332132132326814_);}
	.st32{fill:url(#SVGID_00000067201101254423565520000000011445148401797530_);}
	.st33{fill:url(#SVGID_00000140000091122032488080000011831235432172783757_);}
	.st34{fill:url(#SVGID_00000083071514406103485720000000370020223671859356_);}
	.st35{fill:url(#SVGID_00000007429172700820066560000004382252971560319905_);}
	.st36{fill:url(#SVGID_00000122000401789959922930000008969597008874128271_);}
	.st37{fill:url(#SVGID_00000112632013544348770450000011015097400915707032_);}
	.st38{fill:url(#SVGID_00000106850522064659927940000008191852015763455122_);}
	.st39{fill:url(#SVGID_00000096748482189433750470000015390150594004409987_);}
	.st40{fill:url(#SVGID_00000119086586024231458080000000603980776977179804_);}
	.st41{fill:url(#SVGID_00000155132336561739884410000006537229587608881814_);}
	.st42{fill:url(#SVGID_00000098219519250218689080000005671374676443099284_);}
	.st43{fill:url(#SVGID_00000063616983603488269010000006925679325869212046_);}
	.st44{fill:url(#SVGID_00000135652725512472656970000006058365851778048676_);}
	.st45{fill:url(#SVGID_00000084519256126792098790000004756054246137258121_);}
	.st46{fill:url(#SVGID_00000165931992236381370200000004799673445595462051_);}
	.st47{fill:url(#SVGID_00000070090210736221463420000011440102785956977310_);}
	.st48{fill:url(#SVGID_00000044173973742103057350000003212650007051561400_);}
	.st49{fill:url(#SVGID_00000121979457438114531650000005876813821343403925_);}
	.st50{fill:url(#SVGID_00000101817389240469636440000011169552728775970994_);}
	.st51{fill:url(#SVGID_00000096041850262890553910000012309826563131687310_);}
	.st52{fill:url(#SVGID_00000079458144887618634900000001064642408866113929_);}
	.st53{fill:url(#SVGID_00000103248518684267060120000005748148405368407174_);}
</style>
<g>
	<polygon class="st0" points="1971.9,1233.6 1916.9,1319.3 1971.9,1319.3 2026.9,1319.3 	"/>
	<polygon class="st2" points="2026.9,1319.3 2082,1233.6 2026.9,1233.6 1971.9,1233.6 	"/>
	<linearGradient id="SVGID_1_" gradientUnits="userSpaceOnUse" x1="2026.9436" y1="1276.441" x2="2136.9792" y2="1276.441">
		<stop  offset="0" style="stop-color:#C6C6D3"/>
		<stop  offset="2.104237e-02" style="stop-color:#CCCCD9"/>
		<stop  offset="0.1398" style="stop-color:#EAEBF6"/>
		<stop  offset="0.2441" style="stop-color:#EAEBF6"/>
		<stop  offset="0.4265" style="stop-color:#C6C6D3"/>
		<stop  offset="0.5684" style="stop-color:#CECFDB"/>
		<stop  offset="0.7945" style="stop-color:#E5E6F1"/>
		<stop  offset="0.8387" style="stop-color:#EAEBF6"/>
		<stop  offset="1" style="stop-color:#C6C6D3"/>
	</linearGradient>
	<polygon class="st1" points="2082,1233.6 2026.9,1319.3 2082,1319.3 2137,1319.3 	"/>
	<polygon class="st2" points="2137,1319.3 2192,1233.6 2137,1233.6 2082,1233.6 	"/>
	<polygon class="st3" points="1696.8,1319.3 1751.9,1233.6 1696.8,1233.6 1641.8,1233.6 	"/>
	<polygon class="st0" points="1201.7,1233.6 1146.7,1319.3 1201.7,1319.3 1256.7,1319.3 	"/>
	<polygon class="st4" points="871.6,1233.6 816.6,1319.3 871.6,1319.3 926.6,1319.3 	"/>
	<polygon class="st2" points="926.6,1319.3 981.6,1233.6 926.6,1233.6 871.6,1233.6 	"/>
	
		<linearGradient id="SVGID_00000079482622554559866310000014230222657111774090_" gradientUnits="userSpaceOnUse" x1="596.4819" y1="1276.441" x2="706.5176" y2="1276.441">
		<stop  offset="0" style="stop-color:#C6C6D3"/>
		<stop  offset="2.104237e-02" style="stop-color:#CCCCD9"/>
		<stop  offset="0.1398" style="stop-color:#EAEBF6"/>
		<stop  offset="0.2441" style="stop-color:#EAEBF6"/>
		<stop  offset="0.4265" style="stop-color:#C6C6D3"/>
		<stop  offset="0.5684" style="stop-color:#CECFDB"/>
		<stop  offset="0.7945" style="stop-color:#E5E6F1"/>
		<stop  offset="0.8387" style="stop-color:#EAEBF6"/>
		<stop  offset="1" style="stop-color:#C6C6D3"/>
	</linearGradient>
	<polygon style="fill:url(#SVGID_00000079482622554559866310000014230222657111774090_);" points="651.5,1233.6 596.5,1319.3 
		651.5,1319.3 706.5,1319.3 	"/>
	<polygon class="st2" points="2247,1319.3 2302,1233.6 2247,1233.6 2192,1233.6 	"/>
	<polygon class="st4" points="2302,1233.6 2247,1319.3 2302,1319.3 2357.1,1319.3 	"/>
	<polygon class="st2" points="2357.1,1319.3 2412.1,1233.6 2357.1,1233.6 2302,1233.6 	"/>
	
		<linearGradient id="SVGID_00000149369264732856463470000011879330554261084572_" gradientUnits="userSpaceOnUse" x1="2357.0503" y1="1276.441" x2="2467.0859" y2="1276.441">
		<stop  offset="0" style="stop-color:#C6C6D3"/>
		<stop  offset="2.104237e-02" style="stop-color:#CCCCD9"/>
		<stop  offset="0.1398" style="stop-color:#EAEBF6"/>
		<stop  offset="0.2441" style="stop-color:#EAEBF6"/>
		<stop  offset="0.4265" style="stop-color:#C6C6D3"/>
		<stop  offset="0.5684" style="stop-color:#CECFDB"/>
		<stop  offset="0.7945" style="stop-color:#E5E6F1"/>
		<stop  offset="0.8387" style="stop-color:#EAEBF6"/>
		<stop  offset="1" style="stop-color:#C6C6D3"/>
	</linearGradient>
	<polygon style="fill:url(#SVGID_00000149369264732856463470000011879330554261084572_);" points="2412.1,1233.6 2357.1,1319.3 
		2412.1,1319.3 2467.1,1319.3 	"/>
	<polygon class="st2" points="2522.1,1233.6 2467.1,1319.3 2522.1,1319.3 2577.1,1319.3 	"/>
	<polygon class="st2" points="2577.1,1319.3 2632.1,1233.6 2577.1,1233.6 2522.1,1233.6 	"/>
	<polygon class="st4" points="2632.1,1233.6 2577.1,1319.3 2632.1,1319.3 2687.2,1319.3 	"/>
	<polygon class="st8" points="2687.2,1319.3 2742.2,1233.6 2687.2,1233.6 2632.1,1233.6 	"/>
	<polygon class="st3" points="2797.2,1319.3 2852.2,1233.6 2797.2,1233.6 2742.2,1233.6 	"/>
	<polygon class="st4" points="1916.9,1233.6 1971.9,1147.8 1916.9,1147.8 1861.9,1147.8 	"/>
	<polygon class="st2" points="1971.9,1147.8 1916.9,1233.6 1971.9,1233.6 2026.9,1233.6 	"/>
	
		<linearGradient id="SVGID_00000094606883599850922120000017097119661245635214_" gradientUnits="userSpaceOnUse" x1="1036.6237" y1="1190.678" x2="1146.6593" y2="1190.678">
		<stop  offset="0" style="stop-color:#C6C6D3"/>
		<stop  offset="2.104237e-02" style="stop-color:#CCCCD9"/>
		<stop  offset="0.1398" style="stop-color:#EAEBF6"/>
		<stop  offset="0.2441" style="stop-color:#EAEBF6"/>
		<stop  offset="0.4265" style="stop-color:#C6C6D3"/>
		<stop  offset="0.5684" style="stop-color:#CECFDB"/>
		<stop  offset="0.7945" style="stop-color:#E5E6F1"/>
		<stop  offset="0.8387" style="stop-color:#EAEBF6"/>
		<stop  offset="1" style="stop-color:#C6C6D3"/>
	</linearGradient>
	<polygon style="fill:url(#SVGID_00000094606883599850922120000017097119661245635214_);" points="1091.6,1147.8 1036.6,1233.6 
		1091.6,1233.6 1146.7,1233.6 	"/>
	<polygon class="st2" points="486.4,1233.6 541.5,1147.8 486.4,1147.8 431.4,1147.8 	"/>
	<polygon class="st2" points="266.4,1233.6 321.4,1147.8 266.4,1147.8 211.4,1147.8 	"/>
	<polygon class="st3" points="321.4,1147.8 266.4,1233.6 321.4,1233.6 376.4,1233.6 	"/>
	<polygon class="st8" points="2082,1147.8 2026.9,1233.6 2082,1233.6 2137,1233.6 	"/>
	<polygon class="st4" points="2852.2,1147.8 2797.2,1233.6 2852.2,1233.6 2907.2,1233.6 	"/>
	<polygon class="st2" points="2137,1233.6 2192,1147.8 2137,1147.8 2082,1147.8 	"/>
	<polygon class="st0" points="2192,1147.8 2137,1233.6 2192,1233.6 2247,1233.6 	"/>
	<polygon class="st2" points="2247,1233.6 2302,1147.8 2247,1147.8 2192,1147.8 	"/>
	<polygon class="st8" points="2357.1,1233.6 2412.1,1147.8 2357.1,1147.8 2302,1147.8 	"/>
	<polygon class="st2" points="2412.1,1147.8 2357.1,1233.6 2412.1,1233.6 2467.1,1233.6 	"/>
	<polygon class="st0" points="2467.1,1233.6 2522.1,1147.8 2467.1,1147.8 2412.1,1147.8 	"/>
	<polygon class="st2" points="2522.1,1147.8 2467.1,1233.6 2522.1,1233.6 2577.1,1233.6 	"/>
	<polygon class="st2" points="2632.1,1147.8 2577.1,1233.6 2632.1,1233.6 2687.2,1233.6 	"/>
	<polygon class="st2" points="2687.2,1233.6 2742.2,1147.8 2687.2,1147.8 2632.1,1147.8 	"/>
	<polygon class="st2" points="2742.2,1147.8 2687.2,1233.6 2742.2,1233.6 2797.2,1233.6 	"/>
	<polygon class="st2" points="2797.2,1233.6 2852.2,1147.8 2797.2,1147.8 2742.2,1147.8 	"/>
	
		<linearGradient id="SVGID_00000089553618203290738010000016261651824249884547_" gradientUnits="userSpaceOnUse" x1="1311.7124" y1="1104.915" x2="1421.748" y2="1104.915">
		<stop  offset="0" style="stop-color:#C6C6D3"/>
		<stop  offset="2.104237e-02" style="stop-color:#CCCCD9"/>
		<stop  offset="0.1398" style="stop-color:#EAEBF6"/>
		<stop  offset="0.2441" style="stop-color:#EAEBF6"/>
		<stop  offset="0.4265" style="stop-color:#C6C6D3"/>
		<stop  offset="0.5684" style="stop-color:#CECFDB"/>
		<stop  offset="0.7945" style="stop-color:#E5E6F1"/>
		<stop  offset="0.8387" style="stop-color:#EAEBF6"/>
		<stop  offset="1" style="stop-color:#C6C6D3"/>
	</linearGradient>
	<polygon style="fill:url(#SVGID_00000089553618203290738010000016261651824249884547_);" points="1366.7,1147.8 1421.7,1062 
		1366.7,1062 1311.7,1062 	"/>
	<polygon class="st8" points="1641.8,1062 1586.8,1147.8 1641.8,1147.8 1696.8,1147.8 	"/>
	<polygon class="st2" points="1861.9,1062 1806.9,1147.8 1861.9,1147.8 1916.9,1147.8 	"/>
	
		<linearGradient id="SVGID_00000080166767839095006750000006957418128483912339_" gradientUnits="userSpaceOnUse" x1="1861.8903" y1="1104.915" x2="1971.9259" y2="1104.915">
		<stop  offset="0" style="stop-color:#C6C6D3"/>
		<stop  offset="2.104237e-02" style="stop-color:#CCCCD9"/>
		<stop  offset="0.1398" style="stop-color:#EAEBF6"/>
		<stop  offset="0.2441" style="stop-color:#EAEBF6"/>
		<stop  offset="0.4265" style="stop-color:#C6C6D3"/>
		<stop  offset="0.5684" style="stop-color:#CECFDB"/>
		<stop  offset="0.7945" style="stop-color:#E5E6F1"/>
		<stop  offset="0.8387" style="stop-color:#EAEBF6"/>
		<stop  offset="1" style="stop-color:#C6C6D3"/>
	</linearGradient>
	<polygon style="fill:url(#SVGID_00000080166767839095006750000006957418128483912339_);" points="1916.9,1147.8 1971.9,1062 
		1916.9,1062 1861.9,1062 	"/>
	<polygon class="st4" points="871.6,1147.8 926.6,1062 871.6,1062 816.6,1062 	"/>
	<polygon class="st0" points="706.5,1062 651.5,1147.8 706.5,1147.8 761.5,1147.8 	"/>
	<polygon class="st2" points="1971.9,1062 1916.9,1147.8 1971.9,1147.8 2026.9,1147.8 	"/>
	<polygon class="st0" points="2026.9,1147.8 2082,1062 2026.9,1062 1971.9,1062 	"/>
	<polygon class="st2" points="2082,1062 2026.9,1147.8 2082,1147.8 2137,1147.8 	"/>
	<polygon class="st4" points="2137,1147.8 2192,1062 2137,1062 2082,1062 	"/>
	<polygon class="st3" points="2192,1062 2137,1147.8 2192,1147.8 2247,1147.8 	"/>
	<polygon class="st2" points="2247,1147.8 2302,1062 2247,1062 2192,1062 	"/>
	<polygon class="st2" points="2302,1062 2247,1147.8 2302,1147.8 2357.1,1147.8 	"/>
	<polygon class="st2" points="2357.1,1147.8 2412.1,1062 2357.1,1062 2302,1062 	"/>
	<polygon class="st4" points="2412.1,1062 2357.1,1147.8 2412.1,1147.8 2467.1,1147.8 	"/>
	<polygon class="st2" points="2467.1,1147.8 2522.1,1062 2467.1,1062 2412.1,1062 	"/>
	<polygon class="st2" points="2522.1,1062 2467.1,1147.8 2522.1,1147.8 2577.1,1147.8 	"/>
	
		<linearGradient id="SVGID_00000011002656078780085820000002623493925514434465_" gradientUnits="userSpaceOnUse" x1="2522.1035" y1="1104.915" x2="2632.1392" y2="1104.915">
		<stop  offset="0" style="stop-color:#C6C6D3"/>
		<stop  offset="2.104237e-02" style="stop-color:#CCCCD9"/>
		<stop  offset="0.1398" style="stop-color:#EAEBF6"/>
		<stop  offset="0.2441" style="stop-color:#EAEBF6"/>
		<stop  offset="0.4265" style="stop-color:#C6C6D3"/>
		<stop  offset="0.5684" style="stop-color:#CECFDB"/>
		<stop  offset="0.7945" style="stop-color:#E5E6F1"/>
		<stop  offset="0.8387" style="stop-color:#EAEBF6"/>
		<stop  offset="1" style="stop-color:#C6C6D3"/>
	</linearGradient>
	<polygon style="fill:url(#SVGID_00000011002656078780085820000002623493925514434465_);" points="2577.1,1147.8 2632.1,1062 
		2577.1,1062 2522.1,1062 	"/>
	<polygon class="st4" points="2632.1,1062 2577.1,1147.8 2632.1,1147.8 2687.2,1147.8 	"/>
	<polygon class="st8" points="2687.2,1147.8 2742.2,1062 2687.2,1062 2632.1,1062 	"/>
	<polygon class="st0" points="2742.2,1062 2687.2,1147.8 2742.2,1147.8 2797.2,1147.8 	"/>
	<polygon class="st2" points="2797.2,1147.8 2852.2,1062 2797.2,1062 2742.2,1062 	"/>
	<polygon class="st2" points="2026.9,1062 2082,976.3 2026.9,976.3 1971.9,976.3 	"/>
	<polygon class="st2" points="2082,976.3 2026.9,1062 2082,1062 2137,1062 	"/>
	<polygon class="st2" points="2137,1062 2192,976.3 2137,976.3 2082,976.3 	"/>
	<polygon class="st4" points="1146.7,1062 1201.7,976.3 1146.7,976.3 1091.6,976.3 	"/>
	<polygon class="st2" points="981.6,976.3 926.6,1062 981.6,1062 1036.6,1062 	"/>
	<polygon class="st4" points="431.4,976.3 376.4,1062 431.4,1062 486.4,1062 	"/>
	<polygon class="st8" points="101.3,976.3 46.3,1062 101.3,1062 156.3,1062 	"/>
	<polygon class="st2" points="2247,1062 2302,976.3 2247,976.3 2192,976.3 	"/>
	<polygon class="st0" points="2302,976.3 2247,1062 2302,1062 2357.1,1062 	"/>
	
		<linearGradient id="SVGID_00000050631197762552107580000013068032317190684605_" gradientUnits="userSpaceOnUse" x1="2302.0325" y1="1019.1521" x2="2412.0681" y2="1019.1521">
		<stop  offset="0" style="stop-color:#C6C6D3"/>
		<stop  offset="2.104237e-02" style="stop-color:#CCCCD9"/>
		<stop  offset="0.1398" style="stop-color:#EAEBF6"/>
		<stop  offset="0.2441" style="stop-color:#EAEBF6"/>
		<stop  offset="0.4265" style="stop-color:#C6C6D3"/>
		<stop  offset="0.5684" style="stop-color:#CECFDB"/>
		<stop  offset="0.7945" style="stop-color:#E5E6F1"/>
		<stop  offset="0.8387" style="stop-color:#EAEBF6"/>
		<stop  offset="1" style="stop-color:#C6C6D3"/>
	</linearGradient>
	<polygon style="fill:url(#SVGID_00000050631197762552107580000013068032317190684605_);" points="2357.1,1062 2412.1,976.3 
		2357.1,976.3 2302,976.3 	"/>
	<polygon class="st2" points="2412.1,976.3 2357.1,1062 2412.1,1062 2467.1,1062 	"/>
	<polygon class="st2" points="2467.1,1062 2522.1,976.3 2467.1,976.3 2412.1,976.3 	"/>
	<polygon class="st8" points="2522.1,976.3 2467.1,1062 2522.1,1062 2577.1,1062 	"/>
	<polygon class="st2" points="2577.1,1062 2632.1,976.3 2577.1,976.3 2522.1,976.3 	"/>
	<polygon class="st2" points="2632.1,976.3 2577.1,1062 2632.1,1062 2687.2,1062 	"/>
	<polygon class="st2" points="2687.2,1062 2742.2,976.3 2687.2,976.3 2632.1,976.3 	"/>
	<polygon class="st4" points="2742.2,976.3 2687.2,1062 2742.2,1062 2797.2,1062 	"/>
	<polygon class="st4" points="1531.8,890.5 1476.8,976.3 1531.8,976.3 1586.8,976.3 	"/>
	<polygon class="st4" points="1861.9,890.5 1806.9,976.3 1861.9,976.3 1916.9,976.3 	"/>
	<polygon class="st2" points="2137,976.3 2192,890.5 2137,890.5 2082,890.5 	"/>
	<polygon class="st2" points="2192,890.5 2137,976.3 2192,976.3 2247,976.3 	"/>
	<polygon class="st2" points="2247,976.3 2302,890.5 2247,890.5 2192,890.5 	"/>
	
		<linearGradient id="SVGID_00000178919088068041415180000007297026308682538922_" gradientUnits="userSpaceOnUse" x1="816.5531" y1="933.389" x2="926.5887" y2="933.389">
		<stop  offset="0" style="stop-color:#C6C6D3"/>
		<stop  offset="2.104237e-02" style="stop-color:#CCCCD9"/>
		<stop  offset="0.1398" style="stop-color:#EAEBF6"/>
		<stop  offset="0.2441" style="stop-color:#EAEBF6"/>
		<stop  offset="0.4265" style="stop-color:#C6C6D3"/>
		<stop  offset="0.5684" style="stop-color:#CECFDB"/>
		<stop  offset="0.7945" style="stop-color:#E5E6F1"/>
		<stop  offset="0.8387" style="stop-color:#EAEBF6"/>
		<stop  offset="1" style="stop-color:#C6C6D3"/>
	</linearGradient>
	<polygon style="fill:url(#SVGID_00000178919088068041415180000007297026308682538922_);" points="871.6,890.5 816.6,976.3 
		871.6,976.3 926.6,976.3 	"/>
	<polygon class="st4" points="706.5,976.3 761.5,890.5 706.5,890.5 651.5,890.5 	"/>
	
		<linearGradient id="SVGID_00000129896261733622256160000005779016202223928482_" gradientUnits="userSpaceOnUse" x1="321.3943" y1="933.3891" x2="431.4299" y2="933.3891">
		<stop  offset="0" style="stop-color:#C6C6D3"/>
		<stop  offset="2.104237e-02" style="stop-color:#CCCCD9"/>
		<stop  offset="0.1398" style="stop-color:#EAEBF6"/>
		<stop  offset="0.2441" style="stop-color:#EAEBF6"/>
		<stop  offset="0.4265" style="stop-color:#C6C6D3"/>
		<stop  offset="0.5684" style="stop-color:#CECFDB"/>
		<stop  offset="0.7945" style="stop-color:#E5E6F1"/>
		<stop  offset="0.8387" style="stop-color:#EAEBF6"/>
		<stop  offset="1" style="stop-color:#C6C6D3"/>
	</linearGradient>
	<polygon style="fill:url(#SVGID_00000129896261733622256160000005779016202223928482_);" points="376.4,976.3 431.4,890.5 
		376.4,890.5 321.4,890.5 	"/>
	<polygon class="st2" points="2302,890.5 2247,976.3 2302,976.3 2357.1,976.3 	"/>
	<polygon class="st8" points="2357.1,976.3 2412.1,890.5 2357.1,890.5 2302,890.5 	"/>
	<polygon class="st2" points="2412.1,890.5 2357.1,976.3 2412.1,976.3 2467.1,976.3 	"/>
	<polygon class="st2" points="2467.1,976.3 2522.1,890.5 2467.1,890.5 2412.1,890.5 	"/>
	<polygon class="st4" points="2522.1,890.5 2467.1,976.3 2522.1,976.3 2577.1,976.3 	"/>
	<polygon class="st2" points="2577.1,976.3 2632.1,890.5 2577.1,890.5 2522.1,890.5 	"/>
	<polygon class="st2" points="2687.2,976.3 2742.2,890.5 2687.2,890.5 2632.1,890.5 	"/>
	
		<linearGradient id="SVGID_00000109018770719327007780000007509399955712859808_" gradientUnits="userSpaceOnUse" x1="2687.157" y1="933.389" x2="2797.1926" y2="933.389">
		<stop  offset="0" style="stop-color:#C6C6D3"/>
		<stop  offset="2.104237e-02" style="stop-color:#CCCCD9"/>
		<stop  offset="0.1398" style="stop-color:#EAEBF6"/>
		<stop  offset="0.2441" style="stop-color:#EAEBF6"/>
		<stop  offset="0.4265" style="stop-color:#C6C6D3"/>
		<stop  offset="0.5684" style="stop-color:#CECFDB"/>
		<stop  offset="0.7945" style="stop-color:#E5E6F1"/>
		<stop  offset="0.8387" style="stop-color:#EAEBF6"/>
		<stop  offset="1" style="stop-color:#C6C6D3"/>
	</linearGradient>
	<polygon style="fill:url(#SVGID_00000109018770719327007780000007509399955712859808_);" points="2742.2,890.5 2687.2,976.3 
		2742.2,976.3 2797.2,976.3 	"/>
	<polygon class="st8" points="2797.2,976.3 2852.2,890.5 2797.2,890.5 2742.2,890.5 	"/>
	<polygon class="st2" points="1696.8,890.5 1751.9,804.7 1696.8,804.7 1641.8,804.7 	"/>
	<polygon class="st2" points="1916.9,890.5 1971.9,804.7 1916.9,804.7 1861.9,804.7 	"/>
	<polygon class="st0" points="1971.9,804.7 1916.9,890.5 1971.9,890.5 2026.9,890.5 	"/>
	
		<linearGradient id="SVGID_00000024689627672235129620000012906972082678990733_" gradientUnits="userSpaceOnUse" x1="1421.7482" y1="847.6261" x2="1531.7838" y2="847.6261">
		<stop  offset="0" style="stop-color:#C6C6D3"/>
		<stop  offset="2.104237e-02" style="stop-color:#CCCCD9"/>
		<stop  offset="0.1398" style="stop-color:#EAEBF6"/>
		<stop  offset="0.2441" style="stop-color:#EAEBF6"/>
		<stop  offset="0.4265" style="stop-color:#C6C6D3"/>
		<stop  offset="0.5684" style="stop-color:#CECFDB"/>
		<stop  offset="0.7945" style="stop-color:#E5E6F1"/>
		<stop  offset="0.8387" style="stop-color:#EAEBF6"/>
		<stop  offset="1" style="stop-color:#C6C6D3"/>
	</linearGradient>
	<polygon style="fill:url(#SVGID_00000024689627672235129620000012906972082678990733_);" points="1476.8,890.5 1531.8,804.7 
		1476.8,804.7 1421.7,804.7 	"/>
	<polygon class="st3" points="1201.7,804.7 1146.7,890.5 1201.7,890.5 1256.7,890.5 	"/>
	<polygon class="st8" points="816.6,890.5 871.6,804.7 816.6,804.7 761.5,804.7 	"/>
	<polygon class="st2" points="541.5,804.7 486.4,890.5 541.5,890.5 596.5,890.5 	"/>
	<polygon class="st2" points="2026.9,890.5 2082,804.7 2026.9,804.7 1971.9,804.7 	"/>
	<polygon class="st2" points="2082,804.7 2026.9,890.5 2082,890.5 2137,890.5 	"/>
	
		<linearGradient id="SVGID_00000135656797185892145900000011569494558116454530_" gradientUnits="userSpaceOnUse" x1="2081.9614" y1="847.6261" x2="2191.9971" y2="847.6261">
		<stop  offset="0" style="stop-color:#C6C6D3"/>
		<stop  offset="2.104237e-02" style="stop-color:#CCCCD9"/>
		<stop  offset="0.1398" style="stop-color:#EAEBF6"/>
		<stop  offset="0.2441" style="stop-color:#EAEBF6"/>
		<stop  offset="0.4265" style="stop-color:#C6C6D3"/>
		<stop  offset="0.5684" style="stop-color:#CECFDB"/>
		<stop  offset="0.7945" style="stop-color:#E5E6F1"/>
		<stop  offset="0.8387" style="stop-color:#EAEBF6"/>
		<stop  offset="1" style="stop-color:#C6C6D3"/>
	</linearGradient>
	<polygon style="fill:url(#SVGID_00000135656797185892145900000011569494558116454530_);" points="2137,890.5 2192,804.7 
		2137,804.7 2082,804.7 	"/>
	<polygon class="st2" points="2192,804.7 2137,890.5 2192,890.5 2247,890.5 	"/>
	<polygon class="st2" points="2247,890.5 2302,804.7 2247,804.7 2192,804.7 	"/>
	<polygon class="st4" points="2302,804.7 2247,890.5 2302,890.5 2357.1,890.5 	"/>
	<polygon class="st2" points="2412.1,804.7 2357.1,890.5 2412.1,890.5 2467.1,890.5 	"/>
	<polygon class="st2" points="2467.1,890.5 2522.1,804.7 2467.1,804.7 2412.1,804.7 	"/>
	<polygon class="st2" points="2522.1,804.7 2467.1,890.5 2522.1,890.5 2577.1,890.5 	"/>
	<polygon class="st8" points="2577.1,890.5 2632.1,804.7 2577.1,804.7 2522.1,804.7 	"/>
	<polygon class="st0" points="2632.1,804.7 2577.1,890.5 2632.1,890.5 2687.2,890.5 	"/>
	<polygon class="st4" points="2687.2,890.5 2742.2,804.7 2687.2,804.7 2632.1,804.7 	"/>
	<polygon class="st2" points="2742.2,804.7 2687.2,890.5 2742.2,890.5 2797.2,890.5 	"/>
	<polygon class="st2" points="2797.2,890.5 2852.2,804.7 2797.2,804.7 2742.2,804.7 	"/>
	<polygon class="st0" points="1366.7,804.7 1421.7,719 1366.7,719 1311.7,719 	"/>
	<polygon class="st2" points="1861.9,719 1806.9,804.7 1861.9,804.7 1916.9,804.7 	"/>
	
		<linearGradient id="SVGID_00000130622709257442008080000003326494037613105595_" gradientUnits="userSpaceOnUse" x1="1861.8903" y1="761.8631" x2="1971.9259" y2="761.8631">
		<stop  offset="0" style="stop-color:#C6C6D3"/>
		<stop  offset="2.104237e-02" style="stop-color:#CCCCD9"/>
		<stop  offset="0.1398" style="stop-color:#EAEBF6"/>
		<stop  offset="0.2441" style="stop-color:#EAEBF6"/>
		<stop  offset="0.4265" style="stop-color:#C6C6D3"/>
		<stop  offset="0.5684" style="stop-color:#CECFDB"/>
		<stop  offset="0.7945" style="stop-color:#E5E6F1"/>
		<stop  offset="0.8387" style="stop-color:#EAEBF6"/>
		<stop  offset="1" style="stop-color:#C6C6D3"/>
	</linearGradient>
	<polygon style="fill:url(#SVGID_00000130622709257442008080000003326494037613105595_);" points="1916.9,804.7 1971.9,719 
		1916.9,719 1861.9,719 	"/>
	<polygon class="st2" points="1971.9,719 1916.9,804.7 1971.9,804.7 2026.9,804.7 	"/>
	<polygon class="st4" points="1036.6,804.7 1091.6,719 1036.6,719 981.6,719 	"/>
	<polygon class="st2" points="596.5,804.7 651.5,719 596.5,719 541.5,719 	"/>
	<polygon class="st3" points="651.5,719 596.5,804.7 651.5,804.7 706.5,804.7 	"/>
	<polygon class="st2" points="321.4,719 266.4,804.7 321.4,804.7 376.4,804.7 	"/>
	<polygon class="st4" points="156.3,804.7 211.4,719 156.3,719 101.3,719 	"/>
	<polygon class="st4" points="2026.9,804.7 2082,719 2026.9,719 1971.9,719 	"/>
	<polygon class="st2" points="2082,719 2026.9,804.7 2082,804.7 2137,804.7 	"/>
	<polygon class="st8" points="2137,804.7 2192,719 2137,719 2082,719 	"/>
	<polygon class="st2" points="2192,719 2137,804.7 2192,804.7 2247,804.7 	"/>
	<polygon class="st2" points="2247,804.7 2302,719 2247,719 2192,719 	"/>
	<polygon class="st2" points="2302,719 2247,804.7 2302,804.7 2357.1,804.7 	"/>
	<polygon class="st0" points="2357.1,804.7 2412.1,719 2357.1,719 2302,719 	"/>
	<polygon class="st2" points="2412.1,719 2357.1,804.7 2412.1,804.7 2467.1,804.7 	"/>
	<polygon class="st2" points="2467.1,804.7 2522.1,719 2467.1,719 2412.1,719 	"/>
	
		<linearGradient id="SVGID_00000130626987564998272520000003172968445432001931_" gradientUnits="userSpaceOnUse" x1="2467.0857" y1="761.863" x2="2577.1213" y2="761.863">
		<stop  offset="0" style="stop-color:#C6C6D3"/>
		<stop  offset="2.104237e-02" style="stop-color:#CCCCD9"/>
		<stop  offset="0.1398" style="stop-color:#EAEBF6"/>
		<stop  offset="0.2441" style="stop-color:#EAEBF6"/>
		<stop  offset="0.4265" style="stop-color:#C6C6D3"/>
		<stop  offset="0.5684" style="stop-color:#CECFDB"/>
		<stop  offset="0.7945" style="stop-color:#E5E6F1"/>
		<stop  offset="0.8387" style="stop-color:#EAEBF6"/>
		<stop  offset="1" style="stop-color:#C6C6D3"/>
	</linearGradient>
	<polygon style="fill:url(#SVGID_00000130626987564998272520000003172968445432001931_);" points="2522.1,719 2467.1,804.7 
		2522.1,804.7 2577.1,804.7 	"/>
	<polygon class="st2" points="2577.1,804.7 2632.1,719 2577.1,719 2522.1,719 	"/>
	<polygon class="st2" points="2632.1,719 2577.1,804.7 2632.1,804.7 2687.2,804.7 	"/>
	<polygon class="st2" points="2742.2,719 2687.2,804.7 2742.2,804.7 2797.2,804.7 	"/>
	<polygon class="st4" points="2797.2,804.7 2852.2,719 2797.2,719 2742.2,719 	"/>
	<polygon class="st2" points="1531.8,633.2 1476.8,719 1531.8,719 1586.8,719 	"/>
	<polygon class="st2" points="1696.8,719 1751.9,633.2 1696.8,633.2 1641.8,633.2 	"/>
	
		<linearGradient id="SVGID_00000116218372297225246370000003274028154449124788_" gradientUnits="userSpaceOnUse" x1="871.5698" y1="676.1001" x2="981.6055" y2="676.1001">
		<stop  offset="0" style="stop-color:#C6C6D3"/>
		<stop  offset="2.104237e-02" style="stop-color:#CCCCD9"/>
		<stop  offset="0.1398" style="stop-color:#EAEBF6"/>
		<stop  offset="0.2441" style="stop-color:#EAEBF6"/>
		<stop  offset="0.4265" style="stop-color:#C6C6D3"/>
		<stop  offset="0.5684" style="stop-color:#CECFDB"/>
		<stop  offset="0.7945" style="stop-color:#E5E6F1"/>
		<stop  offset="0.8387" style="stop-color:#EAEBF6"/>
		<stop  offset="1" style="stop-color:#C6C6D3"/>
	</linearGradient>
	<polygon style="fill:url(#SVGID_00000116218372297225246370000003274028154449124788_);" points="926.6,719 981.6,633.2 
		926.6,633.2 871.6,633.2 	"/>
	<polygon class="st4" points="761.5,633.2 706.5,719 761.5,719 816.6,719 	"/>
	<polygon class="st0" points="431.4,633.2 376.4,719 431.4,719 486.4,719 	"/>
	<polygon class="st8" points="1751.9,633.2 1696.8,719 1751.9,719 1806.9,719 	"/>
	<polygon class="st4" points="1806.9,719 1861.9,633.2 1806.9,633.2 1751.9,633.2 	"/>
	<polygon class="st2" points="1861.9,633.2 1806.9,719 1861.9,719 1916.9,719 	"/>
	<polygon class="st2" points="1916.9,719 1971.9,633.2 1916.9,633.2 1861.9,633.2 	"/>
	<polygon class="st2" points="1971.9,633.2 1916.9,719 1971.9,719 2026.9,719 	"/>
	<polygon class="st2" points="2026.9,719 2082,633.2 2026.9,633.2 1971.9,633.2 	"/>
	<polygon class="st0" points="2082,633.2 2026.9,719 2082,719 2137,719 	"/>
	<polygon class="st2" points="2137,719 2192,633.2 2137,633.2 2082,633.2 	"/>
	<polygon class="st2" points="2247,719 2302,633.2 2247,633.2 2192,633.2 	"/>
	<polygon class="st8" points="2302,633.2 2247,719 2302,719 2357.1,719 	"/>
	<polygon class="st2" points="2357.1,719 2412.1,633.2 2357.1,633.2 2302,633.2 	"/>
	<polygon class="st4" points="2412.1,633.2 2357.1,719 2412.1,719 2467.1,719 	"/>
	<polygon class="st2" points="2467.1,719 2522.1,633.2 2467.1,633.2 2412.1,633.2 	"/>
	<polygon class="st2" points="2522.1,633.2 2467.1,719 2522.1,719 2577.1,719 	"/>
	<polygon class="st2" points="2577.1,719 2632.1,633.2 2577.1,633.2 2522.1,633.2 	"/>
	<polygon class="st4" points="2632.1,633.2 2577.1,719 2632.1,719 2687.2,719 	"/>
	<polygon class="st8" points="2687.2,719 2742.2,633.2 2687.2,633.2 2632.1,633.2 	"/>
	<polygon class="st2" points="2742.2,633.2 2687.2,719 2742.2,719 2797.2,719 	"/>
	<polygon class="st2" points="2852.2,633.2 2797.2,719 2852.2,719 2907.2,719 	"/>
	<polygon class="st0" points="2797.2,719 2852.2,633.2 2797.2,633.2 2742.2,633.2 	"/>
	<polygon class="st2" points="1201.7,547.5 1146.7,633.2 1201.7,633.2 1256.7,633.2 	"/>
	<polygon class="st3" points="1586.8,633.2 1641.8,547.5 1586.8,547.5 1531.8,547.5 	"/>
	<polygon class="st2" points="1861.9,547.5 1806.9,633.2 1861.9,633.2 1916.9,633.2 	"/>
	<polygon class="st2" points="1916.9,633.2 1971.9,547.5 1916.9,547.5 1861.9,547.5 	"/>
	<polygon class="st2" points="816.6,633.2 871.6,547.5 816.6,547.5 761.5,547.5 	"/>
	<polygon class="st4" points="541.5,547.5 486.4,633.2 541.5,633.2 596.5,633.2 	"/>
	<polygon class="st3" points="376.4,633.2 431.4,547.5 376.4,547.5 321.4,547.5 	"/>
	
		<linearGradient id="SVGID_00000149376712055987995310000001360498679105335956_" gradientUnits="userSpaceOnUse" x1="1916.9081" y1="590.3371" x2="2026.9437" y2="590.3371">
		<stop  offset="0" style="stop-color:#C6C6D3"/>
		<stop  offset="2.104237e-02" style="stop-color:#CCCCD9"/>
		<stop  offset="0.1398" style="stop-color:#EAEBF6"/>
		<stop  offset="0.2441" style="stop-color:#EAEBF6"/>
		<stop  offset="0.4265" style="stop-color:#C6C6D3"/>
		<stop  offset="0.5684" style="stop-color:#CECFDB"/>
		<stop  offset="0.7945" style="stop-color:#E5E6F1"/>
		<stop  offset="0.8387" style="stop-color:#EAEBF6"/>
		<stop  offset="1" style="stop-color:#C6C6D3"/>
	</linearGradient>
	<polygon style="fill:url(#SVGID_00000149376712055987995310000001360498679105335956_);" points="1971.9,547.5 1916.9,633.2 
		1971.9,633.2 2026.9,633.2 	"/>
	<polygon class="st8" points="2026.9,633.2 2082,547.5 2026.9,547.5 1971.9,547.5 	"/>
	<polygon class="st2" points="2082,547.5 2026.9,633.2 2082,633.2 2137,633.2 	"/>
	<polygon class="st2" points="2137,633.2 2192,547.5 2137,547.5 2082,547.5 	"/>
	<polygon class="st2" points="2192,547.5 2137,633.2 2192,633.2 2247,633.2 	"/>
	<polygon class="st2" points="2247,633.2 2302,547.5 2247,547.5 2192,547.5 	"/>
	<polygon class="st3" points="2302,547.5 2247,633.2 2302,633.2 2357.1,633.2 	"/>
	<polygon class="st2" points="2357.1,633.2 2412.1,547.5 2357.1,547.5 2302,547.5 	"/>
	<polygon class="st2" points="2412.1,547.5 2357.1,633.2 2412.1,633.2 2467.1,633.2 	"/>
	<polygon class="st0" points="2467.1,633.2 2522.1,547.5 2467.1,547.5 2412.1,547.5 	"/>
	<polygon class="st2" points="2577.1,633.2 2632.1,547.5 2577.1,547.5 2522.1,547.5 	"/>
	<polygon class="st2" points="2632.1,547.5 2577.1,633.2 2632.1,633.2 2687.2,633.2 	"/>
	<polygon class="st2" points="2687.2,633.2 2742.2,547.5 2687.2,547.5 2632.1,547.5 	"/>
	<polygon class="st3" points="2742.2,547.5 2687.2,633.2 2742.2,633.2 2797.2,633.2 	"/>
	<polygon class="st2" points="2797.2,633.2 2852.2,547.5 2797.2,547.5 2742.2,547.5 	"/>
	<polygon class="st2" points="2026.9,547.5 2082,461.7 2026.9,461.7 1971.9,461.7 	"/>
	<polygon class="st2" points="2082,461.7 2026.9,547.5 2082,547.5 2137,547.5 	"/>
	<polygon class="st0" points="1751.9,461.7 1696.8,547.5 1751.9,547.5 1806.9,547.5 	"/>
	<polygon class="st0" points="2137,547.5 2192,461.7 2137,461.7 2082,461.7 	"/>
	<polygon class="st4" points="1421.7,461.7 1366.7,547.5 1421.7,547.5 1476.8,547.5 	"/>
	<polygon class="st0" points="981.6,461.7 926.6,547.5 981.6,547.5 1036.6,547.5 	"/>
	
		<linearGradient id="SVGID_00000151517618465684504810000011282500486715424923_" gradientUnits="userSpaceOnUse" x1="651.4993" y1="504.5742" x2="761.5349" y2="504.5742">
		<stop  offset="0" style="stop-color:#C6C6D3"/>
		<stop  offset="2.104237e-02" style="stop-color:#CCCCD9"/>
		<stop  offset="0.1398" style="stop-color:#EAEBF6"/>
		<stop  offset="0.2441" style="stop-color:#EAEBF6"/>
		<stop  offset="0.4265" style="stop-color:#C6C6D3"/>
		<stop  offset="0.5684" style="stop-color:#CECFDB"/>
		<stop  offset="0.7945" style="stop-color:#E5E6F1"/>
		<stop  offset="0.8387" style="stop-color:#EAEBF6"/>
		<stop  offset="1" style="stop-color:#C6C6D3"/>
	</linearGradient>
	<polygon style="fill:url(#SVGID_00000151517618465684504810000011282500486715424923_);" points="706.5,547.5 761.5,461.7 
		706.5,461.7 651.5,461.7 	"/>
	<polygon class="st4" points="2192,461.7 2137,547.5 2192,547.5 2247,547.5 	"/>
	<polygon class="st2" points="2247,547.5 2302,461.7 2247,461.7 2192,461.7 	"/>
	<polygon class="st2" points="2302,461.7 2247,547.5 2302,547.5 2357.1,547.5 	"/>
	<polygon class="st2" points="2357.1,547.5 2412.1,461.7 2357.1,461.7 2302,461.7 	"/>
	<polygon class="st2" points="2412.1,461.7 2357.1,547.5 2412.1,547.5 2467.1,547.5 	"/>
	
		<linearGradient id="SVGID_00000038413014221679427350000012327404845482602907_" gradientUnits="userSpaceOnUse" x1="2412.0679" y1="504.5742" x2="2522.1035" y2="504.5742">
		<stop  offset="0" style="stop-color:#C6C6D3"/>
		<stop  offset="2.104237e-02" style="stop-color:#CCCCD9"/>
		<stop  offset="0.1398" style="stop-color:#EAEBF6"/>
		<stop  offset="0.2441" style="stop-color:#EAEBF6"/>
		<stop  offset="0.4265" style="stop-color:#C6C6D3"/>
		<stop  offset="0.5684" style="stop-color:#CECFDB"/>
		<stop  offset="0.7945" style="stop-color:#E5E6F1"/>
		<stop  offset="0.8387" style="stop-color:#EAEBF6"/>
		<stop  offset="1" style="stop-color:#C6C6D3"/>
	</linearGradient>
	<polygon style="fill:url(#SVGID_00000038413014221679427350000012327404845482602907_);" points="2467.1,547.5 2522.1,461.7 
		2467.1,461.7 2412.1,461.7 	"/>
	<polygon class="st2" points="2522.1,461.7 2467.1,547.5 2522.1,547.5 2577.1,547.5 	"/>
	<polygon class="st8" points="2577.1,547.5 2632.1,461.7 2577.1,461.7 2522.1,461.7 	"/>
	<polygon class="st2" points="2632.1,461.7 2577.1,547.5 2632.1,547.5 2687.2,547.5 	"/>
	<polygon class="st2" points="2687.2,547.5 2742.2,461.7 2687.2,461.7 2632.1,461.7 	"/>
	<polygon class="st2" points="2742.2,461.7 2687.2,547.5 2742.2,547.5 2797.2,547.5 	"/>
	<polygon class="st4" points="2797.2,547.5 2852.2,461.7 2797.2,461.7 2742.2,461.7 	"/>
	
		<linearGradient id="SVGID_00000093890247434180007580000014764625043870921345_" gradientUnits="userSpaceOnUse" x1="2081.9614" y1="418.8112" x2="2191.9971" y2="418.8112">
		<stop  offset="0" style="stop-color:#C6C6D3"/>
		<stop  offset="2.104237e-02" style="stop-color:#CCCCD9"/>
		<stop  offset="0.1398" style="stop-color:#EAEBF6"/>
		<stop  offset="0.2441" style="stop-color:#EAEBF6"/>
		<stop  offset="0.4265" style="stop-color:#C6C6D3"/>
		<stop  offset="0.5684" style="stop-color:#CECFDB"/>
		<stop  offset="0.7945" style="stop-color:#E5E6F1"/>
		<stop  offset="0.8387" style="stop-color:#EAEBF6"/>
		<stop  offset="1" style="stop-color:#C6C6D3"/>
	</linearGradient>
	<polygon style="fill:url(#SVGID_00000093890247434180007580000014764625043870921345_);" points="2137,461.7 2192,375.9 
		2137,375.9 2082,375.9 	"/>
	<polygon class="st2" points="2137,375.9 2192,290.2 2137,290.2 2082,290.2 	"/>
	<polygon class="st2" points="1916.9,461.7 1971.9,375.9 1916.9,375.9 1861.9,375.9 	"/>
	<polygon class="st4" points="1916.9,118.6 1971.9,32.9 1916.9,32.9 1861.9,32.9 	"/>
	<polygon class="st2" points="1366.7,461.7 1421.7,375.9 1366.7,375.9 1311.7,375.9 	"/>
	<polygon class="st2" points="2192,375.9 2137,461.7 2192,461.7 2247,461.7 	"/>
	
		<linearGradient id="SVGID_00000002382136331947005630000017253110124912035457_" gradientUnits="userSpaceOnUse" x1="1091.6414" y1="418.8112" x2="1201.677" y2="418.8112">
		<stop  offset="0" style="stop-color:#C6C6D3"/>
		<stop  offset="2.104237e-02" style="stop-color:#CCCCD9"/>
		<stop  offset="0.1398" style="stop-color:#EAEBF6"/>
		<stop  offset="0.2441" style="stop-color:#EAEBF6"/>
		<stop  offset="0.4265" style="stop-color:#C6C6D3"/>
		<stop  offset="0.5684" style="stop-color:#CECFDB"/>
		<stop  offset="0.7945" style="stop-color:#E5E6F1"/>
		<stop  offset="0.8387" style="stop-color:#EAEBF6"/>
		<stop  offset="1" style="stop-color:#C6C6D3"/>
	</linearGradient>
	<polygon style="fill:url(#SVGID_00000002382136331947005630000017253110124912035457_);" points="1146.7,461.7 1201.7,375.9 
		1146.7,375.9 1091.6,375.9 	"/>
	<polygon class="st2" points="926.6,461.7 981.6,375.9 926.6,375.9 871.6,375.9 	"/>
	<polygon class="st4" points="871.6,375.9 816.6,461.7 871.6,461.7 926.6,461.7 	"/>
	<polygon class="st8" points="486.4,461.7 541.5,375.9 486.4,375.9 431.4,375.9 	"/>
	<polygon class="st4" points="321.4,375.9 266.4,461.7 321.4,461.7 376.4,461.7 	"/>
	<polygon class="st2" points="2247,461.7 2302,375.9 2247,375.9 2192,375.9 	"/>
	<polygon class="st2" points="2357.1,461.7 2412.1,375.9 2357.1,375.9 2302,375.9 	"/>
	<polygon class="st2" points="2412.1,375.9 2357.1,461.7 2412.1,461.7 2467.1,461.7 	"/>
	<polygon class="st2" points="2467.1,461.7 2522.1,375.9 2467.1,375.9 2412.1,375.9 	"/>
	<polygon class="st4" points="2522.1,375.9 2467.1,461.7 2522.1,461.7 2577.1,461.7 	"/>
	<polygon class="st2" points="2577.1,461.7 2632.1,375.9 2577.1,375.9 2522.1,375.9 	"/>
	<polygon class="st2" points="2632.1,375.9 2577.1,461.7 2632.1,461.7 2687.2,461.7 	"/>
	<polygon class="st0" points="2687.2,461.7 2742.2,375.9 2687.2,375.9 2632.1,375.9 	"/>
	<polygon class="st2" points="2742.2,375.9 2687.2,461.7 2742.2,461.7 2797.2,461.7 	"/>
	
		<linearGradient id="SVGID_00000084521664594798412370000004870157387008746118_" gradientUnits="userSpaceOnUse" x1="1476.7659" y1="333.0481" x2="1586.8015" y2="333.0481">
		<stop  offset="0" style="stop-color:#C6C6D3"/>
		<stop  offset="2.104237e-02" style="stop-color:#CCCCD9"/>
		<stop  offset="0.1398" style="stop-color:#EAEBF6"/>
		<stop  offset="0.2441" style="stop-color:#EAEBF6"/>
		<stop  offset="0.4265" style="stop-color:#C6C6D3"/>
		<stop  offset="0.5684" style="stop-color:#CECFDB"/>
		<stop  offset="0.7945" style="stop-color:#E5E6F1"/>
		<stop  offset="0.8387" style="stop-color:#EAEBF6"/>
		<stop  offset="1" style="stop-color:#C6C6D3"/>
	</linearGradient>
	<polygon style="fill:url(#SVGID_00000084521664594798412370000004870157387008746118_);" points="1531.8,290.2 1476.8,375.9 
		1531.8,375.9 1586.8,375.9 	"/>
	<polygon class="st2" points="1806.9,375.9 1861.9,290.2 1806.9,290.2 1751.9,290.2 	"/>
	<polygon class="st4" points="1861.9,290.2 1806.9,375.9 1861.9,375.9 1916.9,375.9 	"/>
	<polygon class="st0" points="1916.9,375.9 1971.9,290.2 1916.9,290.2 1861.9,290.2 	"/>
	<polygon class="st2" points="1036.6,375.9 1091.6,290.2 1036.6,290.2 981.6,290.2 	"/>
	<polygon class="st2" points="761.5,290.2 706.5,375.9 761.5,375.9 816.6,375.9 	"/>
	<polygon class="st4" points="596.5,375.9 651.5,290.2 596.5,290.2 541.5,290.2 	"/>
	<polygon class="st3" points="1971.9,290.2 1916.9,375.9 1971.9,375.9 2026.9,375.9 	"/>
	<polygon class="st2" points="2026.9,375.9 2082,290.2 2026.9,290.2 1971.9,290.2 	"/>
	<polygon class="st2" points="2082,290.2 2026.9,375.9 2082,375.9 2137,375.9 	"/>
	<polygon class="st4" points="2192,290.2 2137,375.9 2192,375.9 2247,375.9 	"/>
	<polygon class="st2" points="2247,375.9 2302,290.2 2247,290.2 2192,290.2 	"/>
	<polygon class="st2" points="2302,290.2 2247,375.9 2302,375.9 2357.1,375.9 	"/>
	<polygon class="st8" points="2357.1,375.9 2412.1,290.2 2357.1,290.2 2302,290.2 	"/>
	<polygon class="st0" points="2412.1,290.2 2357.1,375.9 2412.1,375.9 2467.1,375.9 	"/>
	<polygon class="st2" points="2467.1,375.9 2522.1,290.2 2467.1,290.2 2412.1,290.2 	"/>
	<polygon class="st2" points="2522.1,290.2 2467.1,375.9 2522.1,375.9 2577.1,375.9 	"/>
	<polygon class="st2" points="2632.1,290.2 2577.1,375.9 2632.1,375.9 2687.2,375.9 	"/>
	<polygon class="st2" points="2687.2,375.9 2742.2,290.2 2687.2,290.2 2632.1,290.2 	"/>
	<polygon class="st2" points="2742.2,290.2 2687.2,375.9 2742.2,375.9 2797.2,375.9 	"/>
	<polygon class="st8" points="2797.2,375.9 2852.2,290.2 2797.2,290.2 2742.2,290.2 	"/>
	<polygon class="st4" points="1641.8,204.4 1586.8,290.2 1641.8,290.2 1696.8,290.2 	"/>
	<polygon class="st2" points="1751.9,204.4 1696.8,290.2 1751.9,290.2 1806.9,290.2 	"/>
	<polygon class="st8" points="1201.7,204.4 1146.7,290.2 1201.7,290.2 1256.7,290.2 	"/>
	
		<linearGradient id="SVGID_00000118394920135530127850000000542988949032312717_" gradientUnits="userSpaceOnUse" x1="1751.8546" y1="247.2852" x2="1861.8903" y2="247.2852">
		<stop  offset="0" style="stop-color:#C6C6D3"/>
		<stop  offset="2.104237e-02" style="stop-color:#CCCCD9"/>
		<stop  offset="0.1398" style="stop-color:#EAEBF6"/>
		<stop  offset="0.2441" style="stop-color:#EAEBF6"/>
		<stop  offset="0.4265" style="stop-color:#C6C6D3"/>
		<stop  offset="0.5684" style="stop-color:#CECFDB"/>
		<stop  offset="0.7945" style="stop-color:#E5E6F1"/>
		<stop  offset="0.8387" style="stop-color:#EAEBF6"/>
		<stop  offset="1" style="stop-color:#C6C6D3"/>
	</linearGradient>
	<polygon style="fill:url(#SVGID_00000118394920135530127850000000542988949032312717_);" points="1806.9,290.2 1861.9,204.4 
		1806.9,204.4 1751.9,204.4 	"/>
	<polygon class="st3" points="816.6,290.2 871.6,204.4 816.6,204.4 761.5,204.4 	"/>
	<polygon class="st2" points="1916.9,290.2 1971.9,204.4 1916.9,204.4 1861.9,204.4 	"/>
	<polygon class="st2" points="1971.9,204.4 1916.9,290.2 1971.9,290.2 2026.9,290.2 	"/>
	<polygon class="st4" points="2026.9,290.2 2082,204.4 2026.9,204.4 1971.9,204.4 	"/>
	<polygon class="st8" points="2082,204.4 2026.9,290.2 2082,290.2 2137,290.2 	"/>
	<polygon class="st2" points="2137,290.2 2192,204.4 2137,204.4 2082,204.4 	"/>
	<polygon class="st0" points="2192,204.4 2137,290.2 2192,290.2 2247,290.2 	"/>
	
		<linearGradient id="SVGID_00000137115550658817969580000016931049463295777416_" gradientUnits="userSpaceOnUse" x1="2191.9968" y1="247.2852" x2="2302.0325" y2="247.2852">
		<stop  offset="0" style="stop-color:#C6C6D3"/>
		<stop  offset="2.104237e-02" style="stop-color:#CCCCD9"/>
		<stop  offset="0.1398" style="stop-color:#EAEBF6"/>
		<stop  offset="0.2441" style="stop-color:#EAEBF6"/>
		<stop  offset="0.4265" style="stop-color:#C6C6D3"/>
		<stop  offset="0.5684" style="stop-color:#CECFDB"/>
		<stop  offset="0.7945" style="stop-color:#E5E6F1"/>
		<stop  offset="0.8387" style="stop-color:#EAEBF6"/>
		<stop  offset="1" style="stop-color:#C6C6D3"/>
	</linearGradient>
	<polygon style="fill:url(#SVGID_00000137115550658817969580000016931049463295777416_);" points="2247,290.2 2302,204.4 
		2247,204.4 2192,204.4 	"/>
	<polygon class="st2" points="2357.1,290.2 2412.1,204.4 2357.1,204.4 2302,204.4 	"/>
	<polygon class="st2" points="2412.1,204.4 2357.1,290.2 2412.1,290.2 2467.1,290.2 	"/>
	<polygon class="st4" points="2467.1,290.2 2522.1,204.4 2467.1,204.4 2412.1,204.4 	"/>
	<polygon class="st2" points="2522.1,204.4 2467.1,290.2 2522.1,290.2 2577.1,290.2 	"/>
	<polygon class="st0" points="2577.1,290.2 2632.1,204.4 2577.1,204.4 2522.1,204.4 	"/>
	<polygon class="st2" points="2632.1,204.4 2577.1,290.2 2632.1,290.2 2687.2,290.2 	"/>
	
		<linearGradient id="SVGID_00000086661618258614526330000000199432283844126635_" gradientUnits="userSpaceOnUse" x1="2632.1392" y1="247.2852" x2="2742.1748" y2="247.2852">
		<stop  offset="0" style="stop-color:#C6C6D3"/>
		<stop  offset="2.104237e-02" style="stop-color:#CCCCD9"/>
		<stop  offset="0.1398" style="stop-color:#EAEBF6"/>
		<stop  offset="0.2441" style="stop-color:#EAEBF6"/>
		<stop  offset="0.4265" style="stop-color:#C6C6D3"/>
		<stop  offset="0.5684" style="stop-color:#CECFDB"/>
		<stop  offset="0.7945" style="stop-color:#E5E6F1"/>
		<stop  offset="0.8387" style="stop-color:#EAEBF6"/>
		<stop  offset="1" style="stop-color:#C6C6D3"/>
	</linearGradient>
	<polygon style="fill:url(#SVGID_00000086661618258614526330000000199432283844126635_);" points="2687.2,290.2 2742.2,204.4 
		2687.2,204.4 2632.1,204.4 	"/>
	<polygon class="st2" points="2082,118.6 2026.9,204.4 2082,204.4 2137,204.4 	"/>
	<polygon class="st4" points="2357.1,118.6 2412.1,32.9 2357.1,32.9 2302,32.9 	"/>
	<polygon class="st2" points="2522.1,118.6 2467.1,204.4 2522.1,204.4 2577.1,204.4 	"/>
	<polygon class="st8" points="2577.1,204.4 2632.1,118.6 2577.1,118.6 2522.1,118.6 	"/>
	<polygon class="st2" points="1586.8,204.4 1641.8,118.6 1586.8,118.6 1531.8,118.6 	"/>
	<polygon class="st2" points="2632.1,118.6 2577.1,204.4 2632.1,204.4 2687.2,204.4 	"/>
	<polygon class="st3" points="1311.7,118.6 1256.7,204.4 1311.7,204.4 1366.7,204.4 	"/>
	<polygon class="st4" points="981.6,118.6 926.6,204.4 981.6,204.4 1036.6,204.4 	"/>
	<polygon class="st2" points="541.5,118.6 486.4,204.4 541.5,204.4 596.5,204.4 	"/>
	<polygon class="st2" points="2687.2,204.4 2742.2,118.6 2687.2,118.6 2632.1,118.6 	"/>
	<polygon class="st4" points="2742.2,118.6 2687.2,204.4 2742.2,204.4 2797.2,204.4 	"/>
	<polygon class="st3" points="2522.1,32.9 2467.1,118.6 2522.1,118.6 2577.1,118.6 	"/>
	<polygon class="st8" points="1751.9,32.9 1696.8,118.6 1751.9,118.6 1806.9,118.6 	"/>
	<polygon class="st2" points="1476.8,118.6 1531.8,32.9 1476.8,32.9 1421.7,32.9 	"/>
	<polygon class="st4" points="1421.7,32.9 1366.7,118.6 1421.7,118.6 1476.8,118.6 	"/>
	<polygon class="st2" points="1146.7,118.6 1201.7,32.9 1146.7,32.9 1091.6,32.9 	"/>
	<polygon class="st0" points="816.6,118.6 871.6,32.9 816.6,32.9 761.5,32.9 	"/>
	
		<linearGradient id="SVGID_00000130608469612832663740000000121253133026032028_" gradientUnits="userSpaceOnUse" x1="431.4268" y1="75.7592" x2="541.4624" y2="75.7592">
		<stop  offset="0" style="stop-color:#C6C6D3"/>
		<stop  offset="2.104237e-02" style="stop-color:#CCCCD9"/>
		<stop  offset="0.1398" style="stop-color:#EAEBF6"/>
		<stop  offset="0.2441" style="stop-color:#EAEBF6"/>
		<stop  offset="0.4265" style="stop-color:#C6C6D3"/>
		<stop  offset="0.5684" style="stop-color:#CECFDB"/>
		<stop  offset="0.7945" style="stop-color:#E5E6F1"/>
		<stop  offset="0.8387" style="stop-color:#EAEBF6"/>
		<stop  offset="1" style="stop-color:#C6C6D3"/>
	</linearGradient>
	<polygon style="fill:url(#SVGID_00000130608469612832663740000000121253133026032028_);" points="486.4,118.6 541.5,32.9 
		486.4,32.9 431.4,32.9 	"/>
	<polygon class="st4" points="321.4,32.9 266.4,118.6 321.4,118.6 376.4,118.6 	"/>
	<polygon class="st2" points="2192,32.9 2137,118.6 2192,118.6 2247,118.6 	"/>
	<polygon class="st2" points="2577.1,118.6 2632.1,32.9 2577.1,32.9 2522.1,32.9 	"/>
	<polygon class="st0" points="2687.2,118.6 2742.2,32.9 2687.2,32.9 2632.1,32.9 	"/>
	<polygon class="st2" points="2742.2,32.9 2687.2,118.6 2742.2,118.6 2797.2,118.6 	"/>
	
		<linearGradient id="SVGID_00000124875230615543598300000012054635470338779317_" gradientUnits="userSpaceOnUse" x1="2742.1746" y1="75.7592" x2="2852.2102" y2="75.7592">
		<stop  offset="0" style="stop-color:#C6C6D3"/>
		<stop  offset="2.104237e-02" style="stop-color:#CCCCD9"/>
		<stop  offset="0.1398" style="stop-color:#EAEBF6"/>
		<stop  offset="0.2441" style="stop-color:#EAEBF6"/>
		<stop  offset="0.4265" style="stop-color:#C6C6D3"/>
		<stop  offset="0.5684" style="stop-color:#CECFDB"/>
		<stop  offset="0.7945" style="stop-color:#E5E6F1"/>
		<stop  offset="0.8387" style="stop-color:#EAEBF6"/>
		<stop  offset="1" style="stop-color:#C6C6D3"/>
	</linearGradient>
	<polygon style="fill:url(#SVGID_00000124875230615543598300000012054635470338779317_);" points="2797.2,118.6 2852.2,32.9 
		2797.2,32.9 2742.2,32.9 	"/>
</g>
</svg>
