<?xml version="1.0" encoding="utf-8"?>
<!-- Generator: Adobe Illustrator 27.0.0, SVG Export Plug-In . SVG Version: 6.00 Build 0)  -->
<svg version="1.1" id="Capa_1" xmlns="http://www.w3.org/2000/svg" xmlns:xlink="http://www.w3.org/1999/xlink" x="0px" y="0px"
	 viewBox="0 0 1180.5 306.4" style="enable-background:new 0 0 1180.5 306.4;" xml:space="preserve">
<style type="text/css">
	.st0{fill:#EBEBEB;}
	.st1{fill:#27337E;}
	.st2{fill:#FECA32;}
	.st3{fill:url(#SVGID_1_);}
	.st4{fill:#F69836;}
	.st5{fill:url(#SVGID_00000178924282280860963860000016913825515079530387_);}
	.st6{fill:url(#SVGID_00000165216357514496933570000004639938628718414219_);}
	.st7{fill:url(#SVGID_00000094617755952234228370000010173044725315188641_);}
	.st8{fill:url(#SVGID_00000046317918418006192390000001136969586186517380_);}
	.st9{fill:url(#SVGID_00000032641082977862849890000002882458410513543347_);}
	.st10{fill:url(#SVGID_00000101066968351144447390000000138479022978934672_);}
	.st11{fill:url(#SVGID_00000062187560849271148200000011993923371171940994_);}
	.st12{fill:url(#SVGID_00000076580987298048578680000010800860515440364940_);}
	.st13{fill:#FFFFFF;}
</style>
<g>
	<polygon class="st13" points="135.9,153.2 135.9,153.2 135.9,153.2 	"/>
	<polygon class="st13" points="80.9,182.8 132.2,153.2 80.9,123.5 	"/>
	<polygon class="st13" points="194.7,248.5 246,218.9 194.7,189.2 	"/>
	<polygon class="st13" points="247.9,90.7 196.5,120.3 247.8,150 	"/>
	<polygon class="st13" points="194.7,182.8 246,153.2 194.7,123.5 	"/>
	<polygon class="st13" points="247.8,156.4 196.5,186 247.8,215.7 	"/>
	<polygon class="st13" points="24,215.6 75.3,186 24,156.4 	"/>
	<polygon class="st13" points="77.2,123.5 25.8,153.2 77.2,182.8 	"/>
	<polygon class="st13" points="24,150 75.4,120.3 24,90.7 	"/>
	<polygon class="st13" points="134.1,222 82.7,251.7 134.1,281.3 	"/>
	<polygon class="st13" points="191,189.2 139.6,218.9 191,248.5 	"/>
	<polygon class="st13" points="137.8,281.3 189.1,251.7 137.8,222.1 	"/>
	<polygon class="st13" points="191,123.5 139.6,153.2 191,182.8 	"/>
	<g>
		<polygon class="st13" points="189.1,54.7 137.8,25 137.8,84.3 		"/>
		<polygon class="st13" points="77.2,57.9 25.9,87.5 77.2,117.1 		"/>
		<polygon class="st13" points="80.9,117.2 132.2,87.5 80.9,57.8 		"/>
		<polygon class="st13" points="134.1,25 82.7,54.7 134.1,84.3 		"/>
	</g>
	<g>
		<g>
			<path class="st13" d="M391.4,120.2c-6-9.4-14.3-16.8-24.9-22.2c-10.6-5.4-22.8-8.1-36.6-8.1h-42.1V142l20,11.5l-20,11.5v50.8
				h42.1c13.8,0,26-2.7,36.6-8.1s18.9-12.8,24.9-22.3c6-9.5,9-20.3,9-32.6C400.4,140.6,397.4,129.7,391.4,120.2z M363.5,165.7
				c-1.8,3.8-4.3,7.1-7.6,9.9c-3.2,2.8-7.1,4.9-11.5,6.5c-4.4,1.6-9.3,2.3-14.6,2.3H321v-63h8.8c5.3,0,10.1,0.8,14.6,2.3
				c4.4,1.6,8.3,3.7,11.5,6.5c3.2,2.8,5.8,6.1,7.6,9.9c1.8,3.8,2.7,8.1,2.7,12.8S365.3,161.8,363.5,165.7z"/>
			<rect x="415.7" y="89.9" class="st13" width="33.3" height="126"/>
			<path class="st13" d="M528.2,170.5h27.8c-0.5,2.7-1.4,5.1-2.9,7.3c-2.2,3.2-5.1,5.6-8.8,7.4c-3.7,1.7-8,2.6-12.8,2.6
				c-6.7,0-12.6-1.5-17.5-4.5c-5-3-8.8-7.1-11.4-12.4c-2.6-5.3-4-11.3-4-18c0-6.8,1.4-12.8,4.1-18c2.8-5.2,6.5-9.2,11.3-12.1
				c4.8-2.9,10.3-4.4,16.6-4.4c3.1,0,6.2,0.6,9.3,1.7c3.1,1.1,5.9,2.7,8.5,4.8c2.6,2,4.7,4.4,6.4,7l27.7-16.4
				c-3.4-5.4-7.4-10.2-12.2-14.3c-4.8-4.1-10.5-7.4-17-9.8c-6.5-2.4-14.1-3.6-22.6-3.6c-13,0-24.4,2.8-34.4,8.4
				c-10,5.6-17.8,13.3-23.4,23c-5.6,9.8-8.5,21-8.5,33.8c0,12.7,2.8,24,8.5,33.8c5.6,9.8,13.4,17.5,23.4,23
				c10,5.6,21.4,8.4,34.4,8.4c11.3,0,21.2-2.1,29.8-6.3c8.6-4.2,15.3-10.6,20.2-19.1c4.5-7.8,7-17.4,7.3-28.8l0.1,0v-18.5h-59.8
				V170.5z"/>
			<rect x="601.4" y="89.9" class="st13" width="33.3" height="126"/>
			<path class="st13" d="M691,119.1c2.2-1.8,5.4-2.7,9.5-2.7c4.2,0,7.5,1.2,10,3.6c2.5,2.4,4,4.8,4.6,7.2l32.9-9.5
				c-2.9-7.1-6.5-12.8-10.9-17.2c-4.4-4.4-9.6-7.6-15.7-9.6c-6.1-2-13-3.1-21-3.1c-14.9,0-26.4,3.5-34.7,10.4
				c-8.2,6.9-12.3,16.5-12.3,28.9c0,6.2,1.2,11.9,3.7,16.9c2.5,5,6,9.3,10.6,12.8c4.6,3.5,10.2,6.1,16.6,7.7l18.9,4.9
				c3.2,0.8,5.6,2.2,7.1,4.1c1.5,1.9,2.2,3.8,2.2,5.8c0,3.1-1.3,5.6-3.9,7.6c-2.6,1.9-5.6,2.8-8.9,2.7c-4.2-0.2-7.6-1.4-10.3-3.5
				c-2.6-2.1-4.5-4.6-5.6-7.6l-33.1,9.2c0.6,4.1,2.4,8,5.4,11.6c3,3.7,6.8,6.9,11.4,9.8c4.6,2.9,9.7,5.1,15.4,6.8
				c5.6,1.6,11.4,2.4,17.3,2.4c9.8,0,18.3-1.5,25.4-4.5c7.1-3,12.5-7.4,16.3-13.1c3.8-5.8,5.7-12.8,5.7-21.1c0-9-2.7-17-8.1-24
				c-5.4-7-12.9-11.7-22.5-14.1l-19.1-4.9c-3.4-0.8-5.9-2.1-7.7-3.7c-1.8-1.6-2.7-3.5-2.7-5.7C687.6,123.5,688.7,120.9,691,119.1z"
				/>
			<path class="st13" d="M844,178.2c-2.5,2.9-5.4,5.2-8.8,6.8s-7.5,2.4-12.1,2.4c-6,0-11.3-1.5-15.9-4.4c-4.6-2.9-8.3-7-10.9-12.2
				c-2.6-5.2-4-11.2-4-17.9c0-6.8,1.3-12.8,3.9-18c2.6-5.2,6.1-9.2,10.7-12.1c4.6-2.9,9.8-4.4,15.7-4.4c4.4,0,8.4,0.8,12,2.3
				c3.5,1.6,6.6,3.8,9.3,6.8c2.6,2.9,4.8,6.4,6.5,10.4l31.7-10.1c-3-7.9-7.3-14.9-13-20.9c-5.6-6-12.4-10.7-20.2-14
				c-7.8-3.4-16.6-5-26.3-5c-12.6,0-23.7,2.8-33.4,8.4c-9.7,5.6-17.3,13.3-22.8,23c-5.5,9.8-8.3,21-8.3,33.8c0,12.7,2.8,24,8.3,33.8
				c5.5,9.8,13.1,17.5,22.8,23c9.7,5.6,20.8,8.4,33.4,8.4c9.7,0,18.5-1.7,26.5-5c7.9-3.4,14.7-8.1,20.3-14.1
				c5.6-6.1,9.9-13.1,12.8-21l-31.7-10.1C848.6,171.8,846.4,175.3,844,178.2z"/>
			<path class="st13" d="M1015.1,119.3c-5.8-9.8-13.7-17.5-23.8-23c-10.1-5.6-21.7-8.4-34.9-8.4c-13.1,0-24.7,2.8-34.7,8.4
				c-10.1,5.6-18,13.3-23.8,23c-5.8,9.8-8.6,21-8.6,33.7c0,12.6,2.9,23.8,8.6,33.6c5.8,9.8,13.7,17.5,23.9,23
				c10.1,5.6,21.8,8.4,35,8.4c13.1,0,24.7-2.8,34.7-8.4c10.1-5.6,18-13.3,23.7-23c5.7-9.8,8.6-21,8.6-33.6
				C1023.7,140.4,1020.8,129.1,1015.1,119.3z M985.4,170.9c-2.8,5.2-6.6,9.2-11.5,12.2c-4.9,3-10.6,4.4-17.1,4.4s-12.2-1.5-17.2-4.4
				c-5-2.9-8.9-7-11.8-12.2c-2.9-5.1-4.3-11.1-4.3-17.8c0-6.7,1.4-12.7,4.2-17.9c2.8-5.2,6.7-9.3,11.7-12.2c5-2.9,10.7-4.4,17-4.4
				c6.5,0,12.2,1.5,17.2,4.4c5,2.9,8.9,7,11.7,12.2c2.8,5.2,4.2,11.2,4.2,17.9C989.5,159.8,988.1,165.8,985.4,170.9z"/>
			<polygon class="st13" points="1123.2,89.9 1123.2,159.2 1074.1,89.9 1039,89.9 1039,141.1 1059,152.7 1039,164.2 1039,215.9 
				1072.3,216.1 1072.3,144.1 1123.2,215.9 1156.5,215.9 1156.5,89.9 			"/>
		</g>
	</g>
</g>
</svg>
