<?xml version="1.0" encoding="utf-8"?>
<!-- Generator: Adobe Illustrator 27.0.0, SVG Export Plug-In . SVG Version: 6.00 Build 0)  -->
<svg version="1.1" id="Capa_1" xmlns="http://www.w3.org/2000/svg" xmlns:xlink="http://www.w3.org/1999/xlink" x="0px" y="0px"
	 viewBox="0 0 544.3 604.6" style="enable-background:new 0 0 544.3 604.6;" xml:space="preserve">
<style type="text/css">
	.st0{fill:#EBEBEB;}
	.st1{fill:#27337E;}
	.st2{fill:#FECA32;}
	.st3{fill:url(#SVGID_1_);}
	.st4{fill:#F69836;}
	.st5{fill:url(#SVGID_00000012440206898102565590000003072384975819133086_);}
	.st6{fill:url(#SVGID_00000026121642937345602450000014712768033477959087_);}
	.st7{fill:url(#SVGID_00000132773589328294675880000001805603780141854859_);}
	.st8{fill:url(#SVGID_00000160909789839429167300000008385819075004773297_);}
	.st9{fill:url(#SVGID_00000082335621112706436820000003299789985140886714_);}
	.st10{fill:url(#SVGID_00000031920723595251956740000003884647739276975505_);}
	.st11{fill:url(#SVGID_00000066506144769059464440000000735018915340738723_);}
	.st12{fill:url(#SVGID_00000142865750687399200200000015358107110058220179_);}
	.st13{fill:#FFFFFF;}
</style>
<g>
	<g>
		<polygon points="273.1,307.5 273.1,307.5 273.1,307.5 		"/>
		<polygon points="156.6,370.2 265.3,307.5 156.6,244.7 		"/>
		<polygon points="397.5,509.2 506.1,446.5 397.5,383.7 		"/>
		<polygon points="510,175.3 401.3,238 510,300.7 		"/>
		<polygon points="397.5,370.2 506.1,307.5 397.5,244.8 		"/>
		<polygon points="510,314.2 401.3,377 510,439.7 		"/>
		<polygon points="36.3,439.7 144.9,377 36.3,314.3 		"/>
		<polygon points="148.8,244.8 40.2,307.5 148.8,370.2 		"/>
		<polygon points="36.3,300.7 145,238 36.3,175.2 		"/>
		<polygon points="269.2,453.2 160.5,515.9 269.2,578.7 		"/>
		<polygon points="389.6,383.7 280.9,446.5 389.6,509.3 		"/>
		<polygon points="277,578.7 385.7,516 277,453.3 		"/>
		<polygon points="389.6,244.7 280.9,307.5 389.6,370.2 		"/>
		<g>
			<polygon points="385.8,99 277,36.2 277,161.8 			"/>
			<polygon points="148.8,105.8 40.2,168.5 148.8,231.2 			"/>
			<polygon points="156.6,231.3 265.4,168.5 156.6,105.7 			"/>
			<polygon points="269.2,36.3 160.6,99 269.2,161.7 			"/>
		</g>
	</g>
</g>
</svg>
