<?xml version="1.0" encoding="utf-8"?>
<!-- Generator: Adobe Illustrator 27.0.0, SVG Export Plug-In . SVG Version: 6.00 Build 0)  -->
<svg version="1.1" id="Capa_1" xmlns="http://www.w3.org/2000/svg" xmlns:xlink="http://www.w3.org/1999/xlink" x="0px" y="0px"
	 viewBox="0 0 533.8 587.4" style="enable-background:new 0 0 533.8 587.4;" xml:space="preserve">
<style type="text/css">
	.st0{fill:#EBEBEB;}
	.st1{fill:#27337E;}
	.st2{fill:#FECA32;}
	.st3{fill:url(#SVGID_1_);}
	.st4{fill:#F69836;}
	.st5{fill:url(#SVGID_00000111156765083522145310000007811861687341913021_);}
	.st6{fill:url(#SVGID_00000016036297193919230860000011763889712381435065_);}
	.st7{fill:url(#SVGID_00000168085407842142237700000002567546031207187645_);}
	.st8{fill:url(#SVGID_00000096753566567993608230000004465351004141384068_);}
	.st9{fill:url(#SVGID_00000013183604136802191110000017752903519553664669_);}
	.st10{fill:url(#SVGID_00000024714498101105133650000013710546961954769083_);}
	.st11{fill:url(#SVGID_00000079481699976600527870000001551429402937182614_);}
	.st12{fill:url(#SVGID_00000168805142255305896080000006742466083068119687_);}
	.st13{fill:#FFFFFF;}
</style>
<g>
	<g>
		<polygon class="st13" points="273.1,294.4 273.1,294.4 273.1,294.4 		"/>
		<polygon class="st13" points="156.6,357.2 265.3,294.4 156.6,231.7 		"/>
		<polygon class="st13" points="397.4,496.2 506.1,433.4 397.4,370.7 		"/>
		<polygon class="st13" points="510,162.2 401.3,224.9 510,287.7 		"/>
		<polygon class="st13" points="397.4,357.1 506.1,294.4 397.4,231.7 		"/>
		<polygon class="st13" points="510,301.2 401.3,363.9 510,426.7 		"/>
		<polygon class="st13" points="36.3,426.6 144.9,363.9 36.3,301.2 		"/>
		<polygon class="st13" points="148.8,231.7 40.2,294.4 148.8,357.2 		"/>
		<polygon class="st13" points="36.3,287.7 145,224.9 36.3,162.2 		"/>
		<polygon class="st13" points="269.2,440.1 160.5,502.9 269.2,565.7 		"/>
		<polygon class="st13" points="389.6,370.6 280.9,433.4 389.6,496.2 		"/>
		<polygon class="st13" points="277,565.7 385.7,502.9 277,440.2 		"/>
		<polygon class="st13" points="389.6,231.7 280.9,294.4 389.6,357.2 		"/>
		<g>
			<polygon class="st13" points="385.8,86 277,23.2 277,148.7 			"/>
			<polygon class="st13" points="148.8,92.7 40.2,155.4 148.8,218.2 			"/>
			<polygon class="st13" points="156.6,218.2 265.3,155.4 156.6,92.7 			"/>
			<polygon class="st13" points="269.2,23.2 160.6,85.9 269.2,148.7 			"/>
		</g>
	</g>
</g>
</svg>
