<?xml version="1.0" encoding="utf-8"?>
<!-- Generator: Adobe Illustrator 27.0.0, SVG Export Plug-In . SVG Version: 6.00 Build 0)  -->
<svg version="1.1" id="Capa_1" xmlns="http://www.w3.org/2000/svg" xmlns:xlink="http://www.w3.org/1999/xlink" x="0px" y="0px"
	 viewBox="0 0 920.8 166.7" style="enable-background:new 0 0 920.8 166.7;" xml:space="preserve">
<style type="text/css">
	.st0{fill:#EBEBEB;}
	.st1{fill:#27337E;}
	.st2{fill:#FECA32;}
	.st3{fill:url(#SVGID_1_);}
	.st4{fill:#F69836;}
	.st5{fill:url(#SVGID_00000093866143530786529740000017125460819403308963_);}
	.st6{fill:url(#SVGID_00000003067353958186793120000016433640990456020609_);}
	.st7{fill:url(#SVGID_00000168831189738185812170000001481150443008013195_);}
	.st8{fill:url(#SVGID_00000083080199574943310110000012618608387096954266_);}
	.st9{fill:url(#SVGID_00000091012532577459103250000014476480845624828840_);}
	.st10{fill:url(#SVGID_00000002342340396411365230000015983272887576583050_);}
	.st11{fill:url(#SVGID_00000026137163199315931190000003072551803204072104_);}
	.st12{fill:url(#SVGID_00000074422590010744742410000002706599298363097517_);}
	.st13{fill:#FFFFFF;}
</style>
<g>
	<g>
		<g>
			<path class="st13" d="M133.5,55.3c-6-9.4-14.3-16.8-24.9-22.2C98,27.7,85.7,25,72,25H29.8v52.1l20,11.5l-20,11.5V151H72
				c13.8,0,26-2.7,36.6-8.1s18.9-12.8,24.9-22.3c6-9.5,9-20.3,9-32.6C142.5,75.7,139.5,64.8,133.5,55.3z M105.6,100.8
				c-1.8,3.8-4.3,7.1-7.6,9.9c-3.2,2.8-7.1,4.9-11.5,6.5c-4.4,1.6-9.3,2.3-14.6,2.3h-8.8v-63H72c5.3,0,10.1,0.8,14.6,2.3
				c4.4,1.6,8.3,3.7,11.5,6.5c3.2,2.8,5.8,6.1,7.6,9.9c1.8,3.8,2.7,8.1,2.7,12.8S107.4,97,105.6,100.8z"/>
			<rect x="157.8" y="25" class="st13" width="33.3" height="126"/>
			<path class="st13" d="M270.3,105.7h27.8c-0.5,2.7-1.4,5.1-2.9,7.3c-2.2,3.2-5.1,5.6-8.8,7.4c-3.7,1.7-8,2.6-12.8,2.6
				c-6.7,0-12.6-1.5-17.5-4.5c-5-3-8.8-7.1-11.4-12.4c-2.6-5.3-4-11.3-4-18c0-6.8,1.4-12.8,4.1-18c2.8-5.2,6.5-9.2,11.3-12.1
				c4.8-2.9,10.3-4.4,16.6-4.4c3.1,0,6.2,0.6,9.3,1.7c3.1,1.1,5.9,2.7,8.5,4.8c2.6,2,4.7,4.4,6.4,7l27.7-16.4
				c-3.4-5.4-7.4-10.2-12.2-14.3c-4.8-4.1-10.5-7.4-17-9.8c-6.5-2.4-14.1-3.6-22.6-3.6c-13,0-24.4,2.8-34.4,8.4
				c-10,5.6-17.8,13.3-23.4,23c-5.6,9.8-8.5,21-8.5,33.7c0,12.7,2.8,24,8.5,33.8c5.6,9.8,13.4,17.5,23.4,23
				c10,5.6,21.4,8.4,34.4,8.4c11.3,0,21.2-2.1,29.8-6.3c8.6-4.2,15.3-10.6,20.2-19.1c4.5-7.8,7-17.4,7.3-28.8l0.1,0V80.5h-59.8
				V105.7z"/>
			<rect x="343.6" y="25" class="st13" width="33.3" height="126"/>
			<path class="st13" d="M433.1,54.2c2.2-1.8,5.4-2.7,9.5-2.7c4.2,0,7.5,1.2,10,3.6c2.5,2.4,4,4.8,4.6,7.2l32.9-9.5
				c-2.9-7.1-6.5-12.8-10.9-17.2c-4.4-4.4-9.6-7.6-15.7-9.6c-6.1-2-13-3.1-21-3.1c-14.9,0-26.4,3.5-34.7,10.4
				c-8.2,6.9-12.3,16.5-12.3,28.9c0,6.2,1.2,11.9,3.7,16.9c2.5,5,6,9.3,10.6,12.8c4.6,3.5,10.2,6.1,16.6,7.7l18.9,4.9
				c3.2,0.8,5.6,2.2,7.1,4.1c1.5,1.9,2.2,3.8,2.2,5.8c0,3.1-1.3,5.6-3.9,7.6c-2.6,1.9-5.6,2.8-8.9,2.7c-4.2-0.2-7.6-1.4-10.3-3.5
				c-2.6-2.1-4.5-4.6-5.6-7.6l-33.1,9.2c0.6,4.1,2.4,8,5.4,11.6c3,3.7,6.8,6.9,11.4,9.8c4.6,2.9,9.7,5.1,15.4,6.8
				c5.6,1.6,11.4,2.4,17.3,2.4c9.8,0,18.3-1.5,25.4-4.5c7.1-3,12.5-7.4,16.3-13.1c3.8-5.8,5.7-12.8,5.7-21.1c0-9-2.7-17-8.1-24
				c-5.4-7-12.9-11.7-22.5-14.1l-19.1-4.9c-3.4-0.8-5.9-2.1-7.7-3.7c-1.8-1.6-2.7-3.5-2.7-5.7C429.8,58.6,430.9,56,433.1,54.2z"/>
			<path class="st13" d="M586.1,113.3c-2.5,2.9-5.4,5.2-8.8,6.8s-7.5,2.4-12.1,2.4c-6,0-11.3-1.5-15.9-4.4c-4.6-2.9-8.3-7-10.9-12.2
				c-2.6-5.2-4-11.2-4-17.9c0-6.8,1.3-12.8,3.9-18c2.6-5.2,6.1-9.2,10.7-12.1c4.6-2.9,9.8-4.4,15.7-4.4c4.4,0,8.4,0.8,12,2.3
				c3.5,1.6,6.6,3.8,9.3,6.8c2.6,2.9,4.8,6.4,6.5,10.4L624,62.8c-3-7.9-7.3-14.9-13-20.9c-5.6-6-12.4-10.7-20.2-14
				c-7.8-3.4-16.6-5-26.3-5c-12.6,0-23.7,2.8-33.4,8.4c-9.7,5.6-17.3,13.3-22.8,23c-5.5,9.8-8.3,21-8.3,33.7c0,12.7,2.8,24,8.3,33.8
				c5.5,9.8,13.1,17.5,22.8,23c9.7,5.6,20.8,8.4,33.4,8.4c9.7,0,18.5-1.7,26.5-5c7.9-3.4,14.7-8.1,20.3-14.1
				c5.6-6.1,9.9-13.1,12.8-21L592.5,103C590.7,106.9,588.6,110.4,586.1,113.3z"/>
			<path class="st13" d="M757.2,54.4c-5.8-9.8-13.7-17.5-23.8-23c-10.1-5.6-21.7-8.4-34.9-8.4c-13.1,0-24.7,2.8-34.7,8.4
				c-10.1,5.6-18,13.3-23.8,23c-5.8,9.8-8.6,21-8.6,33.8c0,12.6,2.9,23.8,8.6,33.6c5.8,9.8,13.7,17.5,23.9,23
				c10.1,5.6,21.8,8.4,35,8.4c13.1,0,24.7-2.8,34.7-8.4c10.1-5.6,18-13.3,23.7-23c5.7-9.8,8.6-21,8.6-33.6
				C765.8,75.5,763,64.2,757.2,54.4z M727.5,106c-2.8,5.2-6.6,9.2-11.5,12.2c-4.9,3-10.6,4.4-17.1,4.4s-12.2-1.5-17.2-4.4
				c-5-2.9-8.9-7-11.8-12.2c-2.9-5.1-4.3-11.1-4.3-17.8c0-6.7,1.4-12.7,4.2-17.9c2.8-5.2,6.7-9.3,11.7-12.2c5-2.9,10.7-4.4,17-4.4
				c6.5,0,12.2,1.5,17.2,4.4c5,2.9,8.9,7,11.7,12.2c2.8,5.2,4.2,11.2,4.2,17.9C731.6,94.9,730.3,100.9,727.5,106z"/>
			<polygon class="st13" points="865.4,25 865.4,94.3 816.2,25 781.1,25 781.1,76.2 801.2,87.8 781.1,99.3 781.1,151 814.4,151.2 
				814.4,79.2 865.4,151 898.7,151 898.7,25 			"/>
		</g>
	</g>
</g>
</svg>
