<?xml version="1.0" encoding="utf-8"?>
<!-- Generator: Adobe Illustrator 27.0.0, SVG Export Plug-In . SVG Version: 6.00 Build 0)  -->
<svg version="1.1" id="Capa_1" xmlns="http://www.w3.org/2000/svg" xmlns:xlink="http://www.w3.org/1999/xlink" x="0px" y="0px"
	 viewBox="0 0 920.8 166.7" style="enable-background:new 0 0 920.8 166.7;" xml:space="preserve">
<style type="text/css">
	.st0{fill:#EBEBEB;}
	.st1{fill:#27337E;}
	.st2{fill:#FECA32;}
	.st3{fill:url(#SVGID_1_);}
	.st4{fill:#F69836;}
	.st5{fill:url(#SVGID_00000159456719924491615740000011083921741259039379_);}
	.st6{fill:url(#SVGID_00000176015863961968249710000001354559850277060495_);}
	.st7{fill:url(#SVGID_00000140011379374998002430000010977402676116359590_);}
	.st8{fill:url(#SVGID_00000101787523283399094960000011222539716793992087_);}
	.st9{fill:url(#SVGID_00000183953196166696984220000004670646171541445007_);}
	.st10{fill:url(#SVGID_00000043421950178245880060000002517235006224457901_);}
	.st11{fill:url(#SVGID_00000103224411325388680770000001488967640905513380_);}
	.st12{fill:url(#SVGID_00000026885220961612777600000009968827502412954282_);}
	.st13{fill:#FFFFFF;}
</style>
<g>
	<g>
		<g>
			<path class="st1" d="M129.6,50.7c-6-9.4-14.3-16.8-24.9-22.2c-10.6-5.4-22.8-8.1-36.6-8.1H26v126h42.1c13.8,0,26-2.7,36.6-8.1
				s18.9-12.8,24.9-22.3c6-9.5,9-20.3,9-32.6C138.6,71,135.6,60.1,129.6,50.7z M101.7,96.1c-1.8,3.8-4.3,7.1-7.6,9.9
				c-3.2,2.8-7.1,4.9-11.5,6.5c-4.4,1.6-9.3,2.3-14.6,2.3h-8.8v-63h8.8c5.3,0,10.1,0.8,14.6,2.3c4.4,1.6,8.3,3.7,11.5,6.5
				c3.2,2.8,5.8,6.1,7.6,9.9c1.8,3.8,2.7,8.1,2.7,12.8S103.5,92.3,101.7,96.1z"/>
			<rect x="153.9" y="20.3" class="st1" width="33.3" height="126"/>
			<path class="st1" d="M266.4,101h27.8c-0.5,2.7-1.4,5.1-2.9,7.3c-2.2,3.2-5.1,5.6-8.8,7.4c-3.7,1.7-8,2.6-12.8,2.6
				c-6.7,0-12.6-1.5-17.5-4.5c-5-3-8.8-7.1-11.4-12.4c-2.6-5.3-4-11.3-4-18c0-6.8,1.4-12.8,4.1-18c2.8-5.2,6.5-9.2,11.3-12.1
				c4.8-2.9,10.3-4.4,16.6-4.4c3.1,0,6.2,0.6,9.3,1.7c3.1,1.1,5.9,2.7,8.5,4.8c2.6,2,4.7,4.4,6.4,7l27.7-16.4
				c-3.4-5.4-7.4-10.2-12.2-14.3c-4.8-4.1-10.5-7.4-17-9.8c-6.5-2.4-14.1-3.6-22.6-3.6c-13,0-24.4,2.8-34.4,8.4
				c-10,5.6-17.8,13.3-23.4,23c-5.6,9.8-8.5,21-8.5,33.7c0,12.7,2.8,24,8.5,33.8c5.6,9.8,13.4,17.5,23.4,23
				c10,5.6,21.4,8.4,34.4,8.4c11.3,0,21.2-2.1,29.8-6.3c8.6-4.2,15.3-10.6,20.2-19.1c4.5-7.8,7-17.4,7.3-28.8l0.1,0V75.8h-59.8V101z
				"/>
			<rect x="339.7" y="20.3" class="st1" width="33.3" height="126"/>
			<path class="st1" d="M429.2,49.5c2.2-1.8,5.4-2.7,9.5-2.7c4.2,0,7.5,1.2,10,3.6c2.5,2.4,4,4.8,4.6,7.2l32.9-9.5
				c-2.9-7.1-6.5-12.8-10.9-17.2c-4.4-4.4-9.6-7.6-15.7-9.6c-6.1-2-13-3.1-21-3.1c-14.9,0-26.4,3.5-34.7,10.4
				c-8.2,6.9-12.3,16.5-12.3,28.9c0,6.2,1.2,11.9,3.7,16.9c2.5,5,6,9.3,10.6,12.8c4.6,3.5,10.2,6.1,16.6,7.7l18.9,4.9
				c3.2,0.8,5.6,2.2,7.1,4.1c1.5,1.9,2.2,3.8,2.2,5.8c0,3.1-1.3,5.6-3.9,7.6c-2.6,1.9-5.6,2.8-8.9,2.7c-4.2-0.2-7.6-1.4-10.3-3.5
				c-2.6-2.1-4.5-4.6-5.6-7.6l-33.1,9.2c0.6,4.1,2.4,8,5.4,11.6c3,3.7,6.8,6.9,11.4,9.8c4.6,2.9,9.7,5.1,15.4,6.8
				c5.6,1.6,11.4,2.4,17.3,2.4c9.8,0,18.3-1.5,25.4-4.5c7.1-3,12.5-7.4,16.3-13.1c3.8-5.8,5.7-12.8,5.7-21.1c0-9-2.7-17-8.1-24
				c-5.4-7-12.9-11.7-22.5-14.1l-19.1-4.9c-3.4-0.8-5.9-2.1-7.7-3.7c-1.8-1.6-2.7-3.5-2.7-5.7C425.9,53.9,427,51.3,429.2,49.5z"/>
			<path class="st1" d="M582.2,108.6c-2.5,2.9-5.4,5.2-8.8,6.8s-7.5,2.4-12.1,2.4c-6,0-11.3-1.5-15.9-4.4c-4.6-2.9-8.3-7-10.9-12.2
				c-2.6-5.2-4-11.2-4-17.9c0-6.8,1.3-12.8,3.9-18c2.6-5.2,6.1-9.2,10.7-12.1c4.6-2.9,9.8-4.4,15.7-4.4c4.4,0,8.4,0.8,12,2.3
				c3.5,1.6,6.6,3.8,9.3,6.8c2.6,2.9,4.8,6.4,6.5,10.4l31.7-10.1c-3-7.9-7.3-14.9-13-20.9c-5.6-6-12.4-10.7-20.2-14
				c-7.8-3.4-16.6-5-26.3-5c-12.6,0-23.7,2.8-33.4,8.4c-9.7,5.6-17.3,13.3-22.8,23c-5.5,9.8-8.3,21-8.3,33.7c0,12.7,2.8,24,8.3,33.8
				c5.5,9.8,13.1,17.5,22.8,23c9.7,5.6,20.8,8.4,33.4,8.4c9.7,0,18.5-1.7,26.5-5c7.9-3.4,14.7-8.1,20.3-14.1
				c5.6-6.1,9.9-13.1,12.8-21l-31.7-10.1C586.8,102.2,584.7,105.7,582.2,108.6z"/>
			<path class="st1" d="M753.3,49.8c-5.8-9.8-13.7-17.5-23.8-23c-10.1-5.6-21.7-8.4-34.9-8.4c-13.1,0-24.7,2.8-34.7,8.4
				c-10.1,5.6-18,13.3-23.8,23c-5.8,9.8-8.6,21-8.6,33.8c0,12.6,2.9,23.8,8.6,33.6c5.8,9.8,13.7,17.5,23.9,23
				c10.1,5.6,21.8,8.4,35,8.4c13.1,0,24.7-2.8,34.7-8.4c10.1-5.6,18-13.3,23.7-23c5.7-9.8,8.6-21,8.6-33.6
				C762,70.8,759.1,59.5,753.3,49.8z M723.6,101.3c-2.8,5.2-6.6,9.2-11.5,12.2c-4.9,3-10.6,4.4-17.1,4.4s-12.2-1.5-17.2-4.4
				c-5-2.9-8.9-7-11.8-12.2c-2.9-5.1-4.3-11.1-4.3-17.8c0-6.7,1.4-12.7,4.2-17.9c2.8-5.2,6.7-9.3,11.7-12.2c5-2.9,10.7-4.4,17-4.4
				c6.5,0,12.2,1.5,17.2,4.4c5,2.9,8.9,7,11.7,12.2c2.8,5.2,4.2,11.2,4.2,17.9C727.8,90.2,726.4,96.2,723.6,101.3z"/>
			<polygon class="st1" points="894.8,20.3 894.8,146.3 861.5,146.3 810.6,74.5 810.6,146.5 777.3,146.3 777.3,20.3 812.4,20.3 
				861.5,89.6 861.5,20.3 			"/>
		</g>
		<polygon class="st2" points="45.9,84 26,95.5 26,72.5 		"/>
		<polygon class="st2" points="797.3,83.1 777.3,94.6 777.3,71.5 		"/>
	</g>
</g>
</svg>
