<?xml version="1.0" encoding="utf-8"?>
<!-- Generator: Adobe Illustrator 27.0.0, SVG Export Plug-In . SVG Version: 6.00 Build 0)  -->
<svg version="1.1" id="Capa_1" xmlns="http://www.w3.org/2000/svg" xmlns:xlink="http://www.w3.org/1999/xlink" x="0px" y="0px"
	 viewBox="0 0 533.8 587.4" style="enable-background:new 0 0 533.8 587.4;" xml:space="preserve">
<style type="text/css">
	.st0{fill:#EBEBEB;}
	.st1{fill:#27337E;}
	.st2{fill:#FECA32;}
	.st3{fill:url(#SVGID_1_);}
	.st4{fill:#F69836;}
	.st5{fill:url(#SVGID_00000078004533770187488530000004767650402049534654_);}
	.st6{fill:url(#SVGID_00000111912503765501758670000008192495254909252518_);}
	.st7{fill:url(#SVGID_00000028319103341390734260000010874399197890273678_);}
	.st8{fill:url(#SVGID_00000013915303850589229650000002074885114025333176_);}
	.st9{fill:url(#SVGID_00000137841360212198438830000008859204952392992650_);}
	.st10{fill:url(#SVGID_00000011005954146162545810000007245006319070596227_);}
	.st11{fill:url(#SVGID_00000150785853028319821370000012270866446431894418_);}
	.st12{fill:url(#SVGID_00000052801175427010613670000001800230601053108387_);}
	.st13{fill:#FFFFFF;}
</style>
<g>
	<g>
		<polygon class="st0" points="149.4,90.2 149.4,90.3 149.4,90.3 		"/>
		<polygon class="st0" points="384.3,497.2 384.4,497.2 384.4,497.1 		"/>
		<polygon class="st0" points="31.9,293.7 32,293.7 32,293.7 		"/>
		<polygon class="st0" points="266.9,293.7 266.9,293.7 266.9,293.7 		"/>
		<polygon class="st1" points="149.4,225.9 149.4,225.9 149.4,361.5 266.9,293.7 		"/>
		<linearGradient id="SVGID_1_" gradientUnits="userSpaceOnUse" x1="384.391" y1="429.3501" x2="501.8208" y2="429.3501">
			<stop  offset="0" style="stop-color:#C6C6D3"/>
			<stop  offset="2.391577e-02" style="stop-color:#CDCDDA"/>
			<stop  offset="0.1398" style="stop-color:#ECECF9"/>
			<stop  offset="0.2441" style="stop-color:#ECECF9"/>
			<stop  offset="0.4265" style="stop-color:#C6C6D3"/>
			<stop  offset="0.5657" style="stop-color:#CFCFDC"/>
			<stop  offset="0.7875" style="stop-color:#E6E6F3"/>
			<stop  offset="0.8387" style="stop-color:#ECECF9"/>
			<stop  offset="1" style="stop-color:#C6C6D3"/>
		</linearGradient>
		<polygon class="st3" points="384.4,497.1 501.8,429.4 501.8,429.3 384.4,361.6 		"/>
		<polygon class="st0" points="149.4,225.9 149.4,225.9 149.4,225.9 		"/>
		<polygon class="st0" points="149.4,361.5 149.4,361.5 149.4,361.5 		"/>
		<polygon class="st0" points="266.9,429.4 266.9,429.3 266.8,429.3 		"/>
		<polygon class="st0" points="266.9,158.1 266.9,158.1 266.9,158.1 		"/>
		<polygon class="st0" points="384.4,225.9 384.4,225.9 384.4,225.9 		"/>
		<polygon class="st4" points="501.8,293.7 501.8,293.7 501.8,158.1 384.4,225.9 384.4,225.9 		"/>
		<polygon class="st2" points="384.4,361.5 501.8,293.7 384.4,225.9 		"/>
		<polygon class="st4" points="384.4,361.5 384.4,361.6 501.8,429.3 501.8,293.7 501.8,293.7 		"/>
		<polygon class="st1" points="32,293.7 32,429.3 149.4,361.5 		"/>
		<polygon class="st0" points="149.4,497.1 149.4,497.1 149.4,497.1 		"/>
		
			<linearGradient id="SVGID_00000062884961804741756680000005331515967395158920_" gradientUnits="userSpaceOnUse" x1="31.9736" y1="293.7295" x2="149.4005" y2="293.7295">
			<stop  offset="0" style="stop-color:#C6C6D3"/>
			<stop  offset="2.391577e-02" style="stop-color:#CDCDDA"/>
			<stop  offset="0.1398" style="stop-color:#ECECF9"/>
			<stop  offset="0.2441" style="stop-color:#ECECF9"/>
			<stop  offset="0.4265" style="stop-color:#C6C6D3"/>
			<stop  offset="0.5657" style="stop-color:#CFCFDC"/>
			<stop  offset="0.7875" style="stop-color:#E6E6F3"/>
			<stop  offset="0.8387" style="stop-color:#ECECF9"/>
			<stop  offset="1" style="stop-color:#C6C6D3"/>
		</linearGradient>
		<polygon style="fill:url(#SVGID_00000062884961804741756680000005331515967395158920_);" points="149.4,361.5 149.4,225.9 
			32,293.7 32,293.7 149.4,361.5 		"/>
		<polygon class="st1" points="149.4,225.9 32,158.1 32,293.7 149.4,225.9 		"/>
		<polygon class="st1" points="266.8,429.3 149.4,497.1 149.4,497.1 266.9,565 266.9,565 266.9,429.4 		"/>
		<polygon class="st4" points="384.4,361.6 384.3,361.5 266.9,429.3 266.9,429.4 384.3,497.2 384.4,497.1 		"/>
		<polygon class="st2" points="266.9,565 384.3,497.2 266.9,429.4 		"/>
		<polygon class="st4" points="266.9,158.1 384.4,90.3 384.4,90.3 266.9,22.4 266.9,22.5 266.9,158.1 		"/>
		<polygon class="st0" points="384.4,90.3 384.4,90.3 384.4,90.3 		"/>
		<polygon class="st2" points="149.4,90.3 32,158.1 32,158.1 149.4,225.9 		"/>
		<polygon class="st0" points="384.3,361.5 384.4,361.6 384.4,361.5 		"/>
		<polygon class="st1" points="149.4,225.9 266.9,158.1 266.9,158.1 149.4,90.3 149.4,90.3 149.4,225.9 		"/>
		<polygon class="st4" points="384.4,225.9 384.4,225.9 266.9,293.7 266.9,293.7 384.3,361.5 384.4,361.5 		"/>
		
			<linearGradient id="SVGID_00000102520940506877902660000005676810389770947227_" gradientUnits="userSpaceOnUse" x1="149.4276" y1="90.2688" x2="266.8903" y2="90.2688">
			<stop  offset="0" style="stop-color:#C6C6D3"/>
			<stop  offset="2.391577e-02" style="stop-color:#CDCDDA"/>
			<stop  offset="0.1398" style="stop-color:#ECECF9"/>
			<stop  offset="0.2441" style="stop-color:#ECECF9"/>
			<stop  offset="0.4265" style="stop-color:#C6C6D3"/>
			<stop  offset="0.5657" style="stop-color:#CFCFDC"/>
			<stop  offset="0.7875" style="stop-color:#E6E6F3"/>
			<stop  offset="0.8387" style="stop-color:#ECECF9"/>
			<stop  offset="1" style="stop-color:#C6C6D3"/>
		</linearGradient>
		<polygon style="fill:url(#SVGID_00000102520940506877902660000005676810389770947227_);" points="266.9,22.5 149.4,90.3 
			266.9,158.1 		"/>
	</g>
</g>
</svg>
