<?xml version="1.0" encoding="utf-8"?>
<!-- Generator: Adobe Illustrator 27.0.0, SVG Export Plug-In . SVG Version: 6.00 Build 0)  -->
<svg version="1.1" id="Capa_1" xmlns="http://www.w3.org/2000/svg" xmlns:xlink="http://www.w3.org/1999/xlink" x="0px" y="0px"
	 viewBox="0 0 922.3 792.5" style="enable-background:new 0 0 922.3 792.5;" xml:space="preserve">
<style type="text/css">
	.st0{fill:#EBEBEB;}
	.st1{fill:#27337E;}
	.st2{fill:#FECA32;}
	.st3{fill:url(#SVGID_1_);}
	.st4{fill:#F69836;}
	.st5{fill:url(#SVGID_00000076592354670299585890000002858762446937804437_);}
	.st6{fill:url(#SVGID_00000042011539402719189900000000556654359481696178_);}
	.st7{fill:url(#SVGID_00000147918058917809465700000008714081467707859109_);}
	.st8{fill:url(#SVGID_00000103258132433646990340000003458212271428737947_);}
	.st9{fill:url(#SVGID_00000031927218663288083640000013205763982142052252_);}
	.st10{fill:url(#SVGID_00000084511266013260536020000010720405976827100091_);}
	.st11{fill:url(#SVGID_00000085231155977223431700000010329973453063856307_);}
	.st12{fill:url(#SVGID_00000061466491823867435760000017258246087587892612_);}
	.st13{fill:#FFFFFF;}
</style>
<g>
	<g>
		<polygon class="st0" points="343.6,103.9 343.6,103.9 343.7,103.9 		"/>
		<polygon class="st0" points="578.6,510.8 578.6,510.9 578.6,510.8 		"/>
		<polygon class="st0" points="226.2,307.4 226.2,307.4 226.2,307.4 		"/>
		<polygon class="st0" points="461.1,307.4 461.1,307.4 461.1,307.4 		"/>
		<polygon class="st1" points="343.7,239.6 343.6,239.6 343.6,375.2 461.1,307.4 		"/>
		<linearGradient id="SVGID_1_" gradientUnits="userSpaceOnUse" x1="578.6384" y1="442.9999" x2="696.0682" y2="442.9999">
			<stop  offset="0" style="stop-color:#C6C6D3"/>
			<stop  offset="2.391577e-02" style="stop-color:#CDCDDA"/>
			<stop  offset="0.1398" style="stop-color:#ECECF9"/>
			<stop  offset="0.2441" style="stop-color:#ECECF9"/>
			<stop  offset="0.4265" style="stop-color:#C6C6D3"/>
			<stop  offset="0.5657" style="stop-color:#CFCFDC"/>
			<stop  offset="0.7875" style="stop-color:#E6E6F3"/>
			<stop  offset="0.8387" style="stop-color:#ECECF9"/>
			<stop  offset="1" style="stop-color:#C6C6D3"/>
		</linearGradient>
		<polygon class="st3" points="578.6,510.8 696.1,443 696.1,443 578.6,375.2 		"/>
		<polygon class="st0" points="343.6,239.5 343.6,239.6 343.7,239.6 		"/>
		<polygon class="st0" points="343.6,375.2 343.6,375.2 343.6,375.2 		"/>
		<polygon class="st0" points="461.1,443 461.1,443 461.1,443 		"/>
		<polygon class="st0" points="461.1,171.7 461.1,171.8 461.2,171.7 		"/>
		<polygon class="st0" points="578.6,239.6 578.6,239.5 578.6,239.6 		"/>
		<polygon class="st4" points="696.1,307.4 696.1,307.4 696.1,171.7 578.6,239.5 578.6,239.6 		"/>
		<polygon class="st2" points="578.6,375.1 696.1,307.4 578.6,239.6 		"/>
		<polygon class="st4" points="578.6,375.1 578.6,375.2 696.1,443 696.1,307.4 696.1,307.4 		"/>
		<polygon class="st1" points="226.2,307.4 226.2,443 343.6,375.2 		"/>
		<polygon class="st0" points="343.6,510.8 343.6,510.8 343.6,510.8 		"/>
		
			<linearGradient id="SVGID_00000016041704813500478760000001426650682205841541_" gradientUnits="userSpaceOnUse" x1="226.221" y1="307.3792" x2="343.6479" y2="307.3792">
			<stop  offset="0" style="stop-color:#C6C6D3"/>
			<stop  offset="2.391577e-02" style="stop-color:#CDCDDA"/>
			<stop  offset="0.1398" style="stop-color:#ECECF9"/>
			<stop  offset="0.2441" style="stop-color:#ECECF9"/>
			<stop  offset="0.4265" style="stop-color:#C6C6D3"/>
			<stop  offset="0.5657" style="stop-color:#CFCFDC"/>
			<stop  offset="0.7875" style="stop-color:#E6E6F3"/>
			<stop  offset="0.8387" style="stop-color:#ECECF9"/>
			<stop  offset="1" style="stop-color:#C6C6D3"/>
		</linearGradient>
		<polygon style="fill:url(#SVGID_00000016041704813500478760000001426650682205841541_);" points="343.6,375.2 343.6,239.6 
			226.2,307.4 226.2,307.4 343.6,375.2 		"/>
		<polygon class="st1" points="343.6,239.5 226.2,171.7 226.2,307.4 343.6,239.6 		"/>
		<polygon class="st1" points="461.1,443 343.6,510.8 343.6,510.8 461.1,578.6 461.1,578.6 461.1,443 		"/>
		<polygon class="st4" points="578.6,375.2 578.6,375.2 461.1,443 461.1,443 578.6,510.8 578.6,510.8 		"/>
		<polygon class="st2" points="461.1,578.6 578.6,510.8 461.1,443 		"/>
		<polygon class="st4" points="461.2,171.7 578.6,103.9 578.6,103.9 461.2,36.1 461.1,36.1 461.1,171.7 		"/>
		<polygon class="st0" points="578.7,103.9 578.6,103.9 578.6,103.9 		"/>
		<polygon class="st2" points="343.6,103.9 226.2,171.7 226.2,171.7 343.6,239.5 		"/>
		<polygon class="st0" points="578.6,375.2 578.6,375.2 578.6,375.1 		"/>
		<polygon class="st1" points="343.7,239.6 461.1,171.8 461.1,171.7 343.7,103.9 343.6,103.9 343.6,239.5 		"/>
		<polygon class="st4" points="578.6,239.6 578.6,239.6 461.1,307.4 461.1,307.4 578.6,375.2 578.6,375.1 		"/>
		
			<linearGradient id="SVGID_00000044868917225794731300000009358703986514250387_" gradientUnits="userSpaceOnUse" x1="343.675" y1="103.9186" x2="461.1377" y2="103.9186">
			<stop  offset="0" style="stop-color:#C6C6D3"/>
			<stop  offset="2.391577e-02" style="stop-color:#CDCDDA"/>
			<stop  offset="0.1398" style="stop-color:#ECECF9"/>
			<stop  offset="0.2441" style="stop-color:#ECECF9"/>
			<stop  offset="0.4265" style="stop-color:#C6C6D3"/>
			<stop  offset="0.5657" style="stop-color:#CFCFDC"/>
			<stop  offset="0.7875" style="stop-color:#E6E6F3"/>
			<stop  offset="0.8387" style="stop-color:#ECECF9"/>
			<stop  offset="1" style="stop-color:#C6C6D3"/>
		</linearGradient>
		<polygon style="fill:url(#SVGID_00000044868917225794731300000009358703986514250387_);" points="461.1,36.1 343.7,103.9 
			461.1,171.7 		"/>
	</g>
	<g>
		<g>
			<path class="st1" d="M130.4,658.5c-6-9.4-14.3-16.8-24.9-22.2c-10.6-5.4-22.8-8.1-36.6-8.1H26.7v126h42.1c13.8,0,26-2.7,36.6-8.1
				s18.9-12.8,24.9-22.3c6-9.5,9-20.3,9-32.6C139.4,678.9,136.4,668,130.4,658.5z M102.5,704c-1.8,3.8-4.3,7.1-7.6,9.9
				c-3.2,2.8-7.1,4.9-11.5,6.5c-4.4,1.6-9.3,2.3-14.6,2.3H60v-63h8.8c5.3,0,10.1,0.8,14.6,2.3c4.4,1.6,8.3,3.7,11.5,6.5
				c3.2,2.8,5.8,6.1,7.6,9.9c1.8,3.8,2.7,8.1,2.7,12.8S104.3,700.1,102.5,704z"/>
			<rect x="154.7" y="628.2" class="st1" width="33.3" height="126"/>
			<path class="st1" d="M267.2,708.8h27.8c-0.5,2.7-1.4,5.1-2.9,7.3c-2.2,3.2-5.1,5.6-8.8,7.4c-3.7,1.7-8,2.6-12.8,2.6
				c-6.7,0-12.6-1.5-17.5-4.5c-5-3-8.8-7.1-11.4-12.4c-2.6-5.3-4-11.3-4-18c0-6.8,1.4-12.8,4.1-18c2.8-5.2,6.5-9.2,11.3-12.1
				c4.8-2.9,10.3-4.4,16.6-4.4c3.1,0,6.2,0.6,9.3,1.7c3.1,1.1,5.9,2.7,8.5,4.8c2.6,2,4.7,4.4,6.4,7l27.7-16.4
				c-3.4-5.4-7.4-10.2-12.2-14.3c-4.8-4.1-10.5-7.4-17-9.8c-6.5-2.4-14.1-3.6-22.6-3.6c-13,0-24.4,2.8-34.4,8.4
				c-10,5.6-17.8,13.3-23.4,23c-5.6,9.8-8.5,21-8.5,33.8c0,12.7,2.8,24,8.5,33.8c5.6,9.8,13.4,17.5,23.4,23
				c10,5.6,21.4,8.4,34.4,8.4c11.3,0,21.2-2.1,29.8-6.3c8.6-4.2,15.3-10.6,20.2-19.1c4.5-7.8,7-17.4,7.3-28.8l0.1,0v-18.5h-59.8
				V708.8z"/>
			<rect x="340.4" y="628.2" class="st1" width="33.3" height="126"/>
			<path class="st1" d="M430,657.4c2.2-1.8,5.4-2.7,9.5-2.7c4.2,0,7.5,1.2,10,3.6c2.5,2.4,4,4.8,4.6,7.2l32.9-9.5
				c-2.9-7.1-6.5-12.8-10.9-17.2c-4.4-4.4-9.6-7.6-15.7-9.6c-6.1-2-13-3.1-21-3.1c-14.9,0-26.4,3.5-34.7,10.4
				c-8.2,6.9-12.3,16.5-12.3,28.9c0,6.2,1.2,11.9,3.7,16.9c2.5,5,6,9.3,10.6,12.8c4.6,3.5,10.2,6.1,16.6,7.7l18.9,4.9
				c3.2,0.8,5.6,2.2,7.1,4.1c1.5,1.9,2.2,3.8,2.2,5.8c0,3.1-1.3,5.6-3.9,7.6c-2.6,1.9-5.6,2.8-8.9,2.7c-4.2-0.2-7.6-1.4-10.3-3.5
				c-2.6-2.1-4.5-4.6-5.6-7.6l-33.1,9.2c0.6,4.1,2.4,8,5.4,11.6c3,3.7,6.8,6.9,11.4,9.8c4.6,2.9,9.7,5.1,15.4,6.8
				c5.6,1.6,11.4,2.4,17.3,2.4c9.8,0,18.3-1.5,25.4-4.5c7.1-3,12.5-7.4,16.3-13.1c3.8-5.8,5.7-12.8,5.7-21.1c0-9-2.7-17-8.1-24
				c-5.4-7-12.9-11.7-22.5-14.1l-19.1-4.9c-3.4-0.8-5.9-2.1-7.7-3.7c-1.8-1.6-2.7-3.5-2.7-5.7C426.7,661.8,427.8,659.2,430,657.4z"
				/>
			<path class="st1" d="M583,716.5c-2.5,2.9-5.4,5.2-8.8,6.8s-7.5,2.4-12.1,2.4c-6,0-11.3-1.5-15.9-4.4c-4.6-2.9-8.3-7-10.9-12.2
				c-2.6-5.2-4-11.2-4-17.9c0-6.8,1.3-12.8,3.9-18c2.6-5.2,6.1-9.2,10.7-12.1c4.6-2.9,9.8-4.4,15.7-4.4c4.4,0,8.4,0.8,12,2.3
				c3.5,1.6,6.6,3.8,9.3,6.8c2.6,2.9,4.8,6.4,6.5,10.4l31.7-10.1c-3-7.9-7.3-14.9-13-20.9c-5.6-6-12.4-10.7-20.2-14
				c-7.8-3.4-16.6-5-26.3-5c-12.6,0-23.7,2.8-33.4,8.4c-9.7,5.6-17.3,13.3-22.8,23c-5.5,9.8-8.3,21-8.3,33.8c0,12.7,2.8,24,8.3,33.8
				c5.5,9.8,13.1,17.5,22.8,23c9.7,5.6,20.8,8.4,33.4,8.4c9.7,0,18.5-1.7,26.5-5c7.9-3.4,14.7-8.1,20.3-14.1
				c5.6-6.1,9.9-13.1,12.8-21l-31.7-10.1C587.6,710.1,585.5,713.6,583,716.5z"/>
			<path class="st1" d="M754.1,657.6c-5.8-9.8-13.7-17.5-23.8-23c-10.1-5.6-21.7-8.4-34.9-8.4c-13.1,0-24.7,2.8-34.7,8.4
				c-10.1,5.6-18,13.3-23.8,23c-5.8,9.8-8.6,21-8.6,33.8c0,12.6,2.9,23.8,8.6,33.6c5.8,9.8,13.7,17.5,23.9,23
				c10.1,5.6,21.8,8.4,35,8.4c13.1,0,24.7-2.8,34.7-8.4c10.1-5.6,18-13.3,23.7-23c5.7-9.8,8.6-21,8.6-33.6
				C762.7,678.7,759.8,667.4,754.1,657.6z M724.4,709.2c-2.8,5.2-6.6,9.2-11.5,12.2c-4.9,3-10.6,4.4-17.1,4.4s-12.2-1.5-17.2-4.4
				c-5-2.9-8.9-7-11.8-12.2c-2.9-5.1-4.3-11.1-4.3-17.8c0-6.7,1.4-12.7,4.2-17.9c2.8-5.2,6.7-9.3,11.7-12.2c5-2.9,10.7-4.4,17-4.4
				c6.5,0,12.2,1.5,17.2,4.4c5,2.9,8.9,7,11.7,12.2c2.8,5.2,4.2,11.2,4.2,17.9C728.5,698.1,727.1,704.1,724.4,709.2z"/>
			<polygon class="st1" points="895.6,628.2 895.6,754.2 862.3,754.2 811.3,682.4 811.3,754.4 778,754.2 778,628.2 813.1,628.2 
				862.3,697.5 862.3,628.2 			"/>
		</g>
		<polygon class="st2" points="46.7,691.9 26.7,703.4 26.7,680.3 		"/>
		<polygon class="st2" points="798.1,691 778,702.5 778,679.4 		"/>
	</g>
</g>
</svg>
