<?xml version="1.0" encoding="utf-8"?>
<!-- Generator: Adobe Illustrator 27.0.0, SVG Export Plug-In . SVG Version: 6.00 Build 0)  -->
<svg version="1.1" id="Capa_1" xmlns="http://www.w3.org/2000/svg" xmlns:xlink="http://www.w3.org/1999/xlink" x="0px" y="0px"
	 viewBox="0 0 1080 1080" style="enable-background:new 0 0 1080 1080;" xml:space="preserve">
<style type="text/css">
	.st0{fill:#CBD0D6;}
</style>
<g>
	<g>
		<path class="st0" d="M789.8,111v25c31.7,0,62.7,6.7,92,20.1c28.8,13.1,54.7,31.8,77,55.8c46.9,50.4,72.7,118.4,72.7,191.5
			c0,42.7-9.5,86.2-28.1,129.2c-19,43.8-48.1,88.5-86.5,132.7c-38.9,44.9-88.5,90.5-147.2,135.7c-59.2,45.5-129.3,91.7-208.5,137.3
			c-6.4,3.7-13.7,5.7-21.1,5.7c-7.4,0-14.7-1.9-21.1-5.6c-79.1-45.5-149.3-91.6-208.5-137c-58.7-45.1-108.3-90.7-147.2-135.6
			c-38.4-44.2-67.5-88.9-86.5-132.8c-18.7-43.1-28.1-86.6-28.1-129.5c0-73.1,25.8-141.2,72.7-191.5c22.3-24,48.2-42.7,77-55.8
			c29.3-13.3,60.2-20.1,92-20.1c68.6,0,135.9,31.6,194.7,91.5c4.8,4.9,11.2,12,18.9,21.1c9,10.6,22.2,16.6,36.1,16.6
			c11.3,0,22.2-4,30.8-11.3l0,0l0,0c0.8-0.6,1.5-1.3,2.2-2l0.6-0.4l2.4-2.9c7.6-8.9,13.7-15.8,18.4-20.5
			c58.9-60.2,126.4-92.1,195.3-92.1L789.8,111 M789.7,111c-70,0-145,29.9-213.2,99.6c-5.1,5.2-11.6,12.4-19.5,21.7l0,0
			c-0.8,0.9-1.6,1.7-2.5,2.5c-4.2,3.6-9.4,5.4-14.6,5.4c-6.3,0-12.6-2.7-17.1-7.9c-8.2-9.6-14.9-17.1-20.1-22.4
			c-68-69.3-142.7-99-212.5-99C146.5,111,23.6,237.1,23.6,403.4c0,186,160.9,371.5,482.8,556.6c10.4,6,22,9,33.6,9
			c11.6,0,23.2-3,33.6-9c321.9-185.5,482.8-371,482.8-556.5C1056.4,237.1,933.5,111,789.7,111L789.7,111z"/>
	</g>
	<g>
		<path class="st0" d="M477,434.8c-1,15.1-1,33.4,1.7,51.4c7.3,48.2,30.5,62.2,48.7,65.4c2.9,0.5,5.8,0.8,8.7,0.8
			c16.1,0,38.4-7.7,53.1-44.4c5.2-12.9,8.5-27.3,10.7-40c18,32.7,32.5,68.8,40.6,101c7.9,31.6,13.7,75.7-3.8,106.7
			c-7.4,13.1-18.4,23-33.7,30.1c-18.4,8.6-42.8,13-72.4,13c-25.4,0-46.5-4-62.8-11.9c-13.8-6.7-24-16.1-31.3-28.7
			C405.3,624,434,519.1,477,434.8 M485.5,387.3c-6.3,0-12.6,3-16.5,9.8c-69.5,121.1-139.2,346.6,61.7,346.6
			c212.6,0,139.9-207.3,82.6-302.7c-3.9-6.4-10.2-9.4-16.5-9.4c-9.1,0-18,6.2-19.3,16.9c-3.3,28.6-13.5,78.9-41.4,78.9
			c-1.4,0-2.8-0.1-4.3-0.4c-32.7-5.8-33.9-73.9-26.9-117.2C507.1,396.3,496.3,387.3,485.5,387.3L485.5,387.3z"/>
	</g>
</g>
</svg>
