<?xml version="1.0" encoding="utf-8"?>
<!-- Generator: Adobe Illustrator 27.0.0, SVG Export Plug-In . SVG Version: 6.00 Build 0)  -->
<svg version="1.1" id="Capa_1" xmlns="http://www.w3.org/2000/svg" xmlns:xlink="http://www.w3.org/1999/xlink" x="0px" y="0px"
	 viewBox="0 0 1080 1080" style="enable-background:new 0 0 1080 1080;" xml:space="preserve">
<style type="text/css">
	.st0{fill:#CBD0D6;}
</style>
<path class="st0" d="M950.7,412.4c17.8-21.7,27.6-49.1,27.6-77.2c0-62.9-47.9-114.7-109.2-121V6.2L636.7,5.6L636.7,18
	c-0.3,53-43.6,96.1-96.7,96.1c-53,0-96.4-43.1-96.7-96.1l-0.1-12.5L210.9,6.2v208.1c-61.2,6.3-109.2,58.2-109.2,121
	c0,62.8,47.9,114.7,109.2,121v208.1H419c6.3,61.2,58.2,109.1,121,109.1c20.1,0,39.1-4.9,55.8-13.6c22,37.3,58.4,64.2,100.9,74.3
	l52.8,230.5l24.4-5.6l-56.4-246.3l-8.1-1.5c-39.2-7.2-73-31.1-92.7-65.1c24.3-19.8,40.9-48.9,44.3-81.8h102.7l3.3,13.3l24.2-6.1
	L770.8,590c-7.3-32,4.1-64.7,29.6-85.3l6.1-4.9L773,353.7c-2.2-9.8-0.5-19.8,4.8-28.3s13.6-14.4,23.4-16.6
	c9.8-2.2,19.8-0.5,28.3,4.8c8.5,5.3,14.4,13.6,16.6,23.4l43.3,189h0l25.4,111c11.4,49.6-5.8,100.8-44.8,133.6l-5.8,4.9l56.1,250.1
	l24.4-5.5l-52.8-235.4c42.1-38.9,60.2-96.9,47.3-153.2l-25.4-111h0l-16.2-70.6C918.2,442.4,936.6,429.5,950.7,412.4z M842.8,292.4
	c-14.1-8.9-30.9-11.7-47.2-8c-16.3,3.7-30.1,13.6-39,27.7c-8.9,14.1-11.7,30.9-8,47.2l30,131.2c-12.9,12-22.7,27-28.6,43.7
	c-7,19.7-8.3,41-3.6,61.5l11,43.7H636.7v12.5c0,53.3-43.4,96.6-96.7,96.6c-53.3,0-96.7-43.3-96.7-96.6v-12.5H235.9V431.9h-12.5
	c-53.3,0-96.7-43.3-96.7-96.6c0-53.3,43.4-96.7,96.7-96.7h12.5V31.1L419,30.6c2.9,27.6,15.2,53.2,35.2,73.1
	c23,22.8,53.4,35.4,85.8,35.4c32.4,0,62.9-12.6,85.8-35.4c20-19.9,32.2-45.5,35.2-73.1l183.1,0.5v207.5h12.5
	c53.3,0,96.7,43.4,96.7,96.7c0,40-25,75.6-61.3,89.9l-21.5-93.9C866.7,315.1,856.9,301.2,842.8,292.4z"/>
</svg>
