<?xml version="1.0" encoding="utf-8"?>
<!-- Generator: Adobe Illustrator 27.0.0, SVG Export Plug-In . SVG Version: 6.00 Build 0)  -->
<svg version="1.1" id="Capa_1" xmlns="http://www.w3.org/2000/svg" xmlns:xlink="http://www.w3.org/1999/xlink" x="0px" y="0px"
	 viewBox="0 0 1080 1080" style="enable-background:new 0 0 1080 1080;" xml:space="preserve">
<style type="text/css">
	.st0{fill:#FFFFFF;}
</style>
<g>
	<path class="st0" d="M936.9,160.1c-66.1,0-119.9,52.3-122.3,117.8l-581.8,37.6c-9.1-49.8-52.7-87.6-105.1-87.6
		c-59,0-106.9,47.9-106.9,106.9s47.9,106.9,106.9,106.9c21.8,0,42-6.5,58.9-17.7l219.1,259.6c-24.8,25.1-40.1,59.5-40.1,97.5
		c0,76.6,62.1,138.7,138.7,138.7c76.6,0,138.7-62.1,138.7-138.7c0-37.3-14.8-71.2-38.7-96.2l262.3-302.3
		c19.9,14,44.2,22.2,70.4,22.2c67.6,0,122.4-54.8,122.4-122.4C1059.3,214.9,1004.5,160.1,936.9,160.1z M504.2,642.4
		c-29.6,0-57,9.3-79.6,25.1L205.6,407.9c16.7-17.8,27.4-41.4,28.7-67.4l581.8-37.6c4.1,24.3,15.3,46.2,31.5,63.5L585.3,668.6
		C562.5,652.1,534.5,642.4,504.2,642.4z M45.7,334.8c0-45.2,36.7-81.9,81.9-81.9c45.2,0,81.9,36.7,81.9,81.9s-36.7,81.9-81.9,81.9
		C82.4,416.7,45.7,380,45.7,334.8z M584.7,861.6c-21.5,21.5-50,33.3-80.4,33.3c-30.4,0-58.9-11.8-80.4-33.3
		c-21.5-21.5-33.3-50-33.3-80.4c0-30.4,11.8-58.9,33.3-80.4c21.5-21.5,50-33.3,80.4-33.3c30.4,0,58.9,11.8,80.4,33.3
		c21.5,21.5,33.3,50,33.3,80.4C618,811.5,606.1,840.1,584.7,861.6z M936.9,379.9c-53.7,0-97.4-43.7-97.4-97.4s43.7-97.4,97.4-97.4
		s97.4,43.7,97.4,97.4S990.6,379.9,936.9,379.9z"/>
</g>
</svg>
