<?xml version="1.0" encoding="utf-8"?>
<!-- Generator: Adobe Illustrator 27.0.0, SVG Export Plug-In . SVG Version: 6.00 Build 0)  -->
<svg version="1.1" id="Capa_1" xmlns="http://www.w3.org/2000/svg" xmlns:xlink="http://www.w3.org/1999/xlink" x="0px" y="0px"
	 viewBox="0 0 1080 1080" style="enable-background:new 0 0 1080 1080;" xml:space="preserve">
<style type="text/css">
	.st0{fill:#FFFFFF;}
</style>
<g>
	<g>
		<path class="st0" d="M540,304.6c31.8,0,62.6,6.2,91.6,18.5c28,11.9,53.2,28.8,74.8,50.5c21.6,21.6,38.6,46.8,50.5,74.8
			c12.3,29,18.5,59.8,18.5,91.6s-6.2,62.6-18.5,91.6c-11.9,28-28.8,53.2-50.5,74.8c-21.6,21.6-46.8,38.6-74.8,50.5
			c-29,12.3-59.8,18.5-91.6,18.5s-62.6-6.2-91.6-18.5c-28-11.9-53.2-28.8-74.8-50.5c-21.6-21.6-38.6-46.8-50.5-74.8
			c-12.3-29-18.5-59.8-18.5-91.6s6.2-62.6,18.5-91.6c11.9-28,28.8-53.2,50.5-74.8c21.6-21.6,46.8-38.6,74.8-50.5
			C477.4,310.8,508.2,304.6,540,304.6 M540,279.6c-143.8,0-260.4,116.6-260.4,260.4c0,143.8,116.6,260.4,260.4,260.4
			c143.8,0,260.4-116.6,260.4-260.4C800.4,396.2,683.8,279.6,540,279.6L540,279.6z"/>
	</g>
	<g>
		<path class="st0" d="M505.1,631.6c-3.8,0-7.7-1.5-10.6-4.4l-67.8-67.8c-5.9-5.9-5.9-15.4,0-21.2c5.9-5.9,15.4-5.9,21.2,0
			l57.2,57.2l142.6-142.6c5.9-5.9,15.4-5.9,21.2,0c5.9,5.9,5.9,15.4,0,21.2L515.7,627.2C512.8,630.2,509,631.6,505.1,631.6z"/>
	</g>
	<g>
		<path class="st0" d="M593.7,39.8c0.2,0,0.6,0,1,0.4c0.4,0.4,0.4,0.9,0.4,1.1l-2.1,101.1l-0.4,21l20.6,4
			c49.8,9.7,96.3,29,138.4,57.3l17.4,11.7l14.6-15.2l70-73c0.1-0.1,0.4-0.4,1.1-0.4c0.6,0,0.9,0.3,1,0.4l85.6,85.6
			c0.1,0.1,0.4,0.4,0.4,1c0,0.6-0.3,0.9-0.4,1l-75.1,72.1l-14.6,14.1l10.7,17.2c24.5,39.3,41.4,82.1,50.3,127.4l4,20.6l21-0.4
			l101.2-2.1c0.8,0,1.4,0.7,1.4,1.5v121c0,0.8-0.6,1.5-1.5,1.5l-104.1-2.1l-20.3-0.4l-4.6,19.8c-10.5,45.1-28.8,87.4-54.5,125.6
			l-11.7,17.4l15.2,14.6l73,70c0.1,0.1,0.4,0.4,0.4,1c0,0.6-0.3,0.9-0.4,1l-85.6,85.6c-0.1,0.1-0.4,0.4-1,0.4
			c-0.6,0-0.9-0.3-1.1-0.4l-72.1-75.1l-14.1-14.6l-17.2,10.7c-39.3,24.5-82.1,41.4-127.4,50.3l-20.6,4l0.4,21l2.1,101.1
			c0,0.2,0,0.6-0.4,1.1c-0.4,0.4-0.9,0.4-1,0.4h-121c-0.2,0-0.6,0-1-0.4c-0.4-0.4-0.4-0.9-0.4-1.1l2.1-104.1l0.4-20.3l-19.8-4.6
			c-40.7-9.4-79.2-25.4-114.6-47.5l-17.2-10.7l-14.1,14.6L236,941.3c-0.1,0.1-0.4,0.4-1.1,0.4c-0.6,0-0.9-0.3-1-0.4l-85.6-85.6
			c-0.1-0.1-0.4-0.4-0.4-1c0-0.6,0.3-0.9,0.4-1l73-70l15.2-14.6l-11.7-17.4c-25.7-38.2-44.1-80.5-54.5-125.6l-4.6-19.8l-20.3,0.4
			l-104.1,2.1c-0.8,0-1.4-0.7-1.4-1.5v-121c0-0.2,0-0.6,0.4-1c0.4-0.4,0.8-0.4,1-0.4c0,0,0,0,0,0l101.1,2.1l21,0.4l4-20.6
			c8.8-45.3,25.8-88.1,50.3-127.4l10.7-17.2l-14.6-14.1L138.7,236c-0.1-0.1-0.4-0.4-0.4-1s0.3-0.9,0.4-1l85.6-85.6
			c0.1-0.1,0.4-0.4,1-0.4c0.6,0,0.9,0.3,1.1,0.4l70,73l14.6,15.2l17.4-11.7c38.2-25.7,80.5-44.1,125.6-54.5l19.8-4.6l-0.4-20.3
			l-2.1-104.1c0-0.2,0-0.6,0.4-1.1c0.4-0.4,0.9-0.4,1-0.4H593.7 M593.7,14.8h-121c-14.8,0-26.8,12.2-26.5,27l2.1,104.1
			c-48.6,11.3-93.8,31.1-133.9,58.1l-70-73c-5.2-5.4-12.1-8.1-19.1-8.1c-6.8,0-13.5,2.6-18.7,7.7L121,216.2
			c-10.5,10.5-10.3,27.5,0.4,37.8l75.1,72.1c-25.6,41-44,86.8-53.6,135.8l-101.1-2.1c-0.2,0-0.4,0-0.6,0
			c-14.6,0-26.4,11.8-26.4,26.5v121c0,14.6,11.9,26.5,26.4,26.5c0.2,0,0.4,0,0.6,0l104.1-2.1c11.3,48.6,31.1,93.8,58.1,133.9l-73,70
			c-10.7,10.3-10.9,27.3-0.4,37.8l85.6,85.6c5.2,5.2,11.9,7.7,18.7,7.7c6.9,0,13.9-2.7,19.1-8.1l72.1-75.1
			c37.1,23.2,78.3,40.5,122.2,50.6l-2.1,104.1c-0.3,14.8,11.6,27,26.5,27h121c14.8,0,26.8-12.2,26.5-27l-2.1-101.1
			c49-9.6,94.9-28,135.8-53.6l72.1,75.1c5.2,5.4,12.1,8.1,19.1,8.1c6.8,0,13.5-2.6,18.7-7.7l85.6-85.6c10.5-10.5,10.3-27.5-0.4-37.8
			l-73-70c27-40.1,46.9-85.4,58.1-133.9l104.1,2.1c0.2,0,0.4,0,0.6,0c14.6,0,26.4-11.8,26.4-26.5v-121c0-14.6-11.9-26.5-26.4-26.5
			c-0.2,0-0.4,0-0.6,0l-101.1,2.1c-9.6-49-28-94.9-53.6-135.8l75.1-72.1c10.7-10.3,10.9-27.3,0.4-37.8l-85.6-85.6
			c-5.2-5.2-11.9-7.7-18.7-7.7c-6.9,0-13.9,2.7-19.1,8.1l-70,73c-43.8-29.5-93.8-50.6-147.5-61.1l2.1-101.1
			C620.4,27,608.5,14.8,593.7,14.8L593.7,14.8z"/>
	</g>
</g>
</svg>
