<?xml version="1.0" encoding="utf-8"?>
<!-- Generator: Adobe Illustrator 27.0.0, SVG Export Plug-In . SVG Version: 6.00 Build 0)  -->
<svg version="1.1" id="Capa_1" xmlns="http://www.w3.org/2000/svg" xmlns:xlink="http://www.w3.org/1999/xlink" x="0px" y="0px"
	 viewBox="0 0 1080 1080" style="enable-background:new 0 0 1080 1080;" xml:space="preserve">
<style type="text/css">
	.st0{fill:#FECA32;}
</style>
<g>
	<path class="st0" d="M545.7,236.6c-25.6,0-47.1,17.8-52.8,41.7h-80.8v104.3h12.5c16.1,0,29.2,13.1,29.2,29.2s-13.1,29.2-29.2,29.2
		h-12.5v104.3h267.2V441.2h-12.5c-16.1,0-29.2-13.1-29.2-29.2s13.1-29.2,29.2-29.2h12.5V278.4h-80.8
		C592.8,254.5,571.3,236.6,545.7,236.6z M654.3,359.2c-23.9,5.7-41.7,27.2-41.7,52.8s17.8,47.1,41.7,52.8v55.8H437.1v-55.8
		c23.9-5.7,41.7-27.2,41.7-52.8s-17.8-47.1-41.7-52.8v-55.8h79.3v-12.5c0-16.1,13.1-29.2,29.2-29.2c16.1,0,29.2,13.1,29.2,29.2v12.5
		h79.3V359.2z"/>
	<path class="st0" d="M854.1,382.2c0.1-3.5,0.2-7,0.2-10.5c0-170.5-138.2-308.7-308.7-308.7S237,201.2,237,371.7
		c0,3.5,0.1,7,0.2,10.5H237c0,143,111.4,341.8,148.5,404.1c-21.2,7-36.6,27-36.6,50.5v18.2c0,29.4,23.8,53.2,53.2,53.2h4.2
		c-6.4,8.8-10.2,19.6-10.2,31.3v18.2c0,29.4,23.8,53.2,53.2,53.2H642c29.4,0,53.2-23.8,53.2-53.2v-18.2c0-11.7-3.8-22.5-10.2-31.3
		h4.2c29.4,0,53.2-23.8,53.2-53.2v-18.2c0-23.5-15.3-43.5-36.5-50.5c37.1-62.3,148.5-261.1,148.5-404.1H854.1z M670.2,957.8
		c0,15.5-12.6,28.2-28.2,28.2H449.3c-15.5,0-28.2-12.6-28.2-28.2v-18.2c0-15.5,12.6-28.2,28.2-28.2H642c15.5,0,28.2,12.6,28.2,28.2
		V957.8z M717.4,836.9v18.2c0,15.5-12.6,28.2-28.2,28.2H402.1c-15.5,0-28.2-12.6-28.2-28.2v-18.2c0-15.5,12.6-28.2,28.2-28.2h287.1
		C704.7,808.7,717.4,821.3,717.4,836.9z M829.1,381.4l-0.9,25.8h0c-2.2,25.3-7.7,53.6-16.3,84.4c-9.9,35.4-24,74.3-42,115.6
		c-32,73.8-68.1,137.2-86.8,168.4c-1.9,3.2-5.4,5.2-9.2,5.2H417.4c-3.7,0-7.2-2-9.2-5.2c-18.7-31.2-54.8-94.6-86.8-168.4
		c-18-41.4-32.1-80.3-42-115.6c-8.8-31.5-14.3-60.4-16.5-86.2l-0.8-24c-0.1-3.7-0.2-6.8-0.2-9.7c0-38.3,7.5-75.4,22.3-110.4
		c14.3-33.8,34.7-64.1,60.8-90.2s56.4-46.5,90.2-60.8c35-14.8,72.1-22.3,110.4-22.3c38.3,0,75.4,7.5,110.4,22.3
		c33.8,14.3,64.1,34.7,90.2,60.8c26.1,26.1,46.5,56.4,60.8,90.2c14.8,35,22.3,72.1,22.3,110.4C829.3,374.6,829.2,377.7,829.1,381.4z
		"/>
	<path class="st0" d="M1060.9,357.9h-90.3c-6.9,0-12.5,5.6-12.5,12.5s5.6,12.5,12.5,12.5h90.3c6.9,0,12.5-5.6,12.5-12.5
		S1067.8,357.9,1060.9,357.9z"/>
	<path class="st0" d="M1030,545l-84-33.2c-6.4-2.5-13.7,0.6-16.2,7c-2.5,6.4,0.6,13.7,7,16.2l84,33.2c1.5,0.6,3.1,0.9,4.6,0.9
		c5,0,9.7-3,11.6-7.9C1039.6,554.8,1036.4,547.5,1030,545z"/>
	<path class="st0" d="M941.4,229.9c1.5,0,3.1-0.3,4.6-0.9l84-33.2c6.4-2.5,9.6-9.8,7-16.2c-2.5-6.4-9.8-9.6-16.2-7l-84,33.2
		c-6.4,2.5-9.6,9.8-7,16.2C931.7,226.9,936.4,229.9,941.4,229.9z"/>
	<path class="st0" d="M133.3,370.4c0-6.9-5.6-12.5-12.5-12.5H30.5c-6.9,0-12.5,5.6-12.5,12.5s5.6,12.5,12.5,12.5h90.3
		C127.7,382.9,133.3,377.3,133.3,370.4z"/>
	<path class="st0" d="M145.4,511.8l-84,33.2c-6.4,2.5-9.6,9.8-7,16.2c1.9,4.9,6.6,7.9,11.6,7.9c1.5,0,3.1-0.3,4.6-0.9l84-33.2
		c6.4-2.5,9.6-9.8,7-16.2C159.1,512.4,151.8,509.2,145.4,511.8z"/>
	<path class="st0" d="M154.6,205.8l-84-33.2c-6.4-2.5-13.7,0.6-16.2,7s0.6,13.7,7,16.2l84,33.2c1.5,0.6,3.1,0.9,4.6,0.9
		c5,0,9.7-3,11.6-7.9C164.2,215.6,161,208.3,154.6,205.8z"/>
</g>
</svg>
