<?xml version="1.0" encoding="utf-8"?>
<!-- Generator: Adobe Illustrator 27.0.0, SVG Export Plug-In . SVG Version: 6.00 Build 0)  -->
<svg version="1.1" id="Capa_1" xmlns="http://www.w3.org/2000/svg" xmlns:xlink="http://www.w3.org/1999/xlink" x="0px" y="0px"
	 viewBox="0 0 1080 1080" style="enable-background:new 0 0 1080 1080;" xml:space="preserve">
<path d="M981.2,708.8l72.9-13.4l-88.8-482.2l-150.8,27.8c-14.2-43.4-58.8-70.7-104.9-62.2c-46.1,8.5-78,49.9-75.8,95.5l-125.6,23.1
	l0,0l-128.8,23.7v-15.5c0-45.6-25.5-87-65.7-107.6V26.3h-25v187.9l7.6,3.2c35.3,15.1,58.1,49.7,58.1,88.2v20.1L239,346.9v-42.6h-25
	v58.4c0,22.9-12.8,43.3-33.3,53.4l-7,3.4v112.2c0,13.4-10.9,24.2-24.2,24.2s-24.2-10.9-24.2-24.2V389.2h0v-83.7
	c0-36.5,20.3-69.3,52.9-85.7l6.9-3.5V26.3h-25v174.9c-37.1,21.7-59.8,61-59.8,104.3V341h0v31.5L26,386.2l88.8,482.2l174.5-32.1
	l-2.3-12.3c-6.8-36.7,17.6-72.1,54.3-78.8c36.7-6.8,72.1,17.6,78.8,54.3l2.3,12.3L597,779.6l0,0l105-19.3v14.2
	c0,45.6,25.5,87,65.7,107.6v171.7h25V865.9l-7.6-3.2c-35.3-15.1-58.1-49.7-58.1-88.2v-18.8l115.3-21.2v41.3h25v-58.4
	c0-22.9,12.8-43.3,33.3-53.4l7-3.4V548.3c0-13.4,10.9-24.2,24.2-24.2s24.2,10.9,24.2,24.2v142.5h0v83.7c0,36.5-20.3,69.4-52.9,85.7
	l-6.9,3.5v190.1h25V878.8c37.1-21.7,59.8-61,59.8-104.3V739h0V708.8z M336.8,720.5c-46.1,8.5-78,49.9-75.8,95.5l-126.2,23.2
	l-79.8-433l45.1-8.3v133.8c0,27.2,22.1,49.2,49.2,49.2c27.2,0,49.2-22.1,49.2-49.2v-97c22.3-13.6,36.8-36.4,39.8-62.2l249.1-45.9
	l27.6,149.9l12.3-2.3c17.8-3.3,35.8,0.6,50.7,10.8s24.9,25.7,28.2,43.5c6.8,36.7-17.6,72.1-54.3,78.8l-11.7,2.2l0,0l-0.6,0.1
	l27.6,149.9l-125.6,23.1C427.5,739.4,382.9,712,336.8,720.5z M931.9,499c-27.2,0-49.2,22.1-49.2,49.2v97
	c-22.7,13.8-37.3,37.2-39.9,63.6L592.5,755l-23.2-126.2c19.2-6.3,35.7-18.6,47.4-35.5c14-20.4,19.3-45,14.8-69.4
	c-4.5-24.4-18.2-45.5-38.6-59.5c-16.9-11.7-36.8-17.3-56.9-16.3l-23.2-126.2l149.4-27.5l-2.3-12.3c-3.3-17.8,0.6-35.8,10.8-50.7
	c10.3-14.9,25.7-24.9,43.5-28.2c36.7-6.8,72.1,17.6,78.8,54.3l2.3,12.3l149.9-27.6l79.8,433l-43.8,8.1V548.3
	C981.2,521.1,959.1,499,931.9,499z"/>
</svg>
